<?xml version="1.0" encoding="UTF-8" standalone="no"?>
<svg
   xmlns:dc="http://purl.org/dc/elements/1.1/"
   xmlns:cc="http://creativecommons.org/ns#"
   xmlns:rdf="http://www.w3.org/1999/02/22-rdf-syntax-ns#"
   xmlns:svg="http://www.w3.org/2000/svg"
   xmlns="http://www.w3.org/2000/svg"
   xmlns:xlink="http://www.w3.org/1999/xlink"
   xmlns:sodipodi="http://sodipodi.sourceforge.net/DTD/sodipodi-0.dtd"
   xmlns:inkscape="http://www.inkscape.org/namespaces/inkscape"
   width="150.79918mm"
   height="26.1493mm"
   version="1.1"
   viewBox="0 0 150.79918 26.1493"
   id="svg110"
   sodipodi:docname="five-stars.svg"
   inkscape:version="1.0.1 (1.0.1+r74)">
  <metadata
     id="metadata114">
    <rdf:RDF>
      <cc:Work
         rdf:about="">
        <dc:format>image/svg+xml</dc:format>
        <dc:type
           rdf:resource="http://purl.org/dc/dcmitype/StillImage" />
        <dc:title></dc:title>
      </cc:Work>
    </rdf:RDF>
  </metadata>
  <sodipodi:namedview
     pagecolor="#ffffff"
     bordercolor="#666666"
     borderopacity="1"
     objecttolerance="10"
     gridtolerance="10"
     guidetolerance="10"
     inkscape:pageopacity="0"
     inkscape:pageshadow="2"
     inkscape:window-width="1920"
     inkscape:window-height="1009"
     id="namedview112"
     showgrid="false"
     inkscape:pagecheckerboard="true"
     fit-margin-top="0"
     fit-margin-left="0"
     fit-margin-right="0"
     fit-margin-bottom="0"
     inkscape:zoom="2.2172083"
     inkscape:cx="126.7516"
     inkscape:cy="59.694744"
     inkscape:window-x="0"
     inkscape:window-y="34"
     inkscape:window-maximized="1"
     inkscape:current-layer="svg110" />
  <defs
     id="defs72">
    <linearGradient
       id="k"
       x1="384.25"
       x2="384.25"
       y1="258.07999"
       y2="656.21002"
       gradientTransform="matrix(0.057755,0,0,0.057755,7.8079,-1.6932)"
       gradientUnits="userSpaceOnUse">
      <stop
         stop-color="#fff"
         stop-opacity=".61561"
         offset="0"
         id="stop2" />
      <stop
         stop-color="#fff"
         stop-opacity="0"
         offset="1"
         id="stop4" />
    </linearGradient>
    <linearGradient
       id="l"
       x1="55.428001"
       x2="115.09"
       y1="197.57001"
       y2="94.223"
       gradientTransform="matrix(-0.18904,-0.10914,-0.10914,0.18904,62.476,8.2467)"
       gradientUnits="userSpaceOnUse">
      <stop
         stop-color="#d4aa00"
         offset="0"
         id="stop7" />
      <stop
         stop-color="#9d7e01"
         offset=".125"
         id="stop9" />
      <stop
         stop-color="#deb303"
         offset=".25"
         id="stop11" />
      <stop
         stop-color="#fde172"
         offset=".375"
         id="stop13" />
      <stop
         stop-color="#ab8a04"
         offset=".5"
         id="stop15" />
      <stop
         stop-color="#fad647"
         offset=".625"
         id="stop17" />
      <stop
         stop-color="#f9e282"
         offset=".75"
         id="stop19" />
      <stop
         stop-color="#dbb105"
         offset=".875"
         id="stop21" />
      <stop
         stop-color="#ffcf0d"
         offset="1"
         id="stop23" />
    </linearGradient>
    <linearGradient
       id="m"
       x1="67.374001"
       x2="111.31"
       y1="176.85001"
       y2="100.74"
       gradientUnits="userSpaceOnUse">
      <stop
         stop-color="#fc0"
         offset="0"
         id="stop26" />
      <stop
         stop-color="#ffd017"
         offset=".25"
         id="stop28" />
      <stop
         stop-color="#ffea98"
         offset=".5"
         id="stop30" />
      <stop
         stop-color="#ffda4e"
         offset="1"
         id="stop32" />
    </linearGradient>
    <linearGradient
       id="n"
       x1="225.2"
       x2="285.03"
       y1="52.527"
       y2="112.36"
       gradientTransform="matrix(0.26458,0,0,0.29745,0,-4.723)"
       gradientUnits="userSpaceOnUse">
      <stop
         stop-color="#fff"
         offset="0"
         id="stop35" />
      <stop
         stop-color="#fff"
         stop-opacity="0"
         offset="1"
         id="stop37" />
    </linearGradient>
    <radialGradient
       id="p"
       cx="64.209999"
       cy="34.938"
       r="7.3165998"
       gradientTransform="matrix(2.402,-2.402,1.3464,1.3464,-138.26,144.22)"
       gradientUnits="userSpaceOnUse">
      <stop
         stop-color="#9c1700"
         offset="0"
         id="stop40" />
      <stop
         stop-color="#e60000"
         offset=".5939"
         id="stop42" />
      <stop
         stop-color="#ff9e9e"
         offset="1"
         id="stop44" />
    </radialGradient>
    <filter
       id="i"
       x="-0.11706"
       y="-0.12309"
       width="1.2341"
       height="1.2462"
       color-interpolation-filters="sRGB">
      <feGaussianBlur
         stdDeviation="5.4355352"
         id="feGaussianBlur47" />
    </filter>
    <filter
       id="j"
       x="-0.11893"
       y="-0.12109"
       width="1.2379"
       height="1.2422"
       color-interpolation-filters="sRGB">
      <feGaussianBlur
         stdDeviation="1.0856819"
         id="feGaussianBlur50" />
    </filter>
    <linearGradient
       id="o"
       x1="67.492996"
       x2="67.492996"
       y1="38.987"
       y2="19.610001"
       gradientTransform="matrix(1,0,0,1.1242,0,-4.723)"
       gradientUnits="userSpaceOnUse">
      <stop
         stop-color="#d43a00"
         offset="0"
         id="stop53" />
      <stop
         stop-color="#9d1c01"
         offset=".125"
         id="stop55" />
      <stop
         stop-color="#de0803"
         offset=".25"
         id="stop57" />
      <stop
         stop-color="#fd7272"
         offset=".375"
         id="stop59" />
      <stop
         stop-color="#ab2104"
         offset=".5"
         id="stop61" />
      <stop
         stop-color="#fa4747"
         offset=".625"
         id="stop63" />
      <stop
         stop-color="#f98282"
         offset=".75"
         id="stop65" />
      <stop
         stop-color="#db1a05"
         offset=".875"
         id="stop67" />
      <stop
         stop-color="#ff370d"
         offset="1"
         id="stop69" />
    </linearGradient>
    <linearGradient
       inkscape:collect="always"
       xlink:href="#l"
       id="linearGradient976"
       gradientUnits="userSpaceOnUse"
       gradientTransform="matrix(-0.18904,-0.10914,-0.10914,0.18904,62.476,8.2467)"
       x1="55.428001"
       y1="197.57001"
       x2="115.09"
       y2="94.223" />
    <linearGradient
       inkscape:collect="always"
       xlink:href="#m"
       id="linearGradient978"
       gradientUnits="userSpaceOnUse"
       x1="67.374001"
       y1="176.85001"
       x2="111.31"
       y2="100.74" />
    <linearGradient
       inkscape:collect="always"
       xlink:href="#k"
       id="linearGradient980"
       gradientUnits="userSpaceOnUse"
       gradientTransform="matrix(0.057755,0,0,0.057755,7.8079,-1.6932)"
       x1="384.25"
       y1="258.07999"
       x2="384.25"
       y2="656.21002" />
    <linearGradient
       inkscape:collect="always"
       xlink:href="#l"
       id="linearGradient994"
       gradientUnits="userSpaceOnUse"
       gradientTransform="matrix(-0.18904,-0.10914,-0.10914,0.18904,62.476,8.2467)"
       x1="55.428001"
       y1="197.57001"
       x2="115.09"
       y2="94.223" />
    <linearGradient
       inkscape:collect="always"
       xlink:href="#m"
       id="linearGradient996"
       gradientUnits="userSpaceOnUse"
       x1="67.374001"
       y1="176.85001"
       x2="111.31"
       y2="100.74" />
    <linearGradient
       inkscape:collect="always"
       xlink:href="#k"
       id="linearGradient998"
       gradientUnits="userSpaceOnUse"
       gradientTransform="matrix(0.057755,0,0,0.057755,7.8079,-1.6932)"
       x1="384.25"
       y1="258.07999"
       x2="384.25"
       y2="656.21002" />
    <linearGradient
       inkscape:collect="always"
       xlink:href="#l"
       id="linearGradient1012"
       gradientUnits="userSpaceOnUse"
       gradientTransform="matrix(-0.18904,-0.10914,-0.10914,0.18904,62.476,8.2467)"
       x1="55.428001"
       y1="197.57001"
       x2="115.09"
       y2="94.223" />
    <linearGradient
       inkscape:collect="always"
       xlink:href="#m"
       id="linearGradient1014"
       gradientUnits="userSpaceOnUse"
       x1="67.374001"
       y1="176.85001"
       x2="111.31"
       y2="100.74" />
    <linearGradient
       inkscape:collect="always"
       xlink:href="#k"
       id="linearGradient1016"
       gradientUnits="userSpaceOnUse"
       gradientTransform="matrix(0.057755,0,0,0.057755,7.8079,-1.6932)"
       x1="384.25"
       y1="258.07999"
       x2="384.25"
       y2="656.21002" />
    <linearGradient
       inkscape:collect="always"
       xlink:href="#l"
       id="linearGradient1030"
       gradientUnits="userSpaceOnUse"
       gradientTransform="matrix(-0.18904,-0.10914,-0.10914,0.18904,62.476,8.2467)"
       x1="55.428001"
       y1="197.57001"
       x2="115.09"
       y2="94.223" />
    <linearGradient
       inkscape:collect="always"
       xlink:href="#m"
       id="linearGradient1032"
       gradientUnits="userSpaceOnUse"
       x1="67.374001"
       y1="176.85001"
       x2="111.31"
       y2="100.74" />
    <linearGradient
       inkscape:collect="always"
       xlink:href="#k"
       id="linearGradient1034"
       gradientUnits="userSpaceOnUse"
       gradientTransform="matrix(0.057755,0,0,0.057755,7.8079,-1.6932)"
       x1="384.25"
       y1="258.07999"
       x2="384.25"
       y2="656.21002" />
    <linearGradient
       inkscape:collect="always"
       xlink:href="#l"
       id="linearGradient1036"
       gradientUnits="userSpaceOnUse"
       gradientTransform="matrix(-0.18904,-0.10914,-0.10914,0.18904,62.476,8.2467)"
       x1="55.428001"
       y1="197.57001"
       x2="115.09"
       y2="94.223" />
    <linearGradient
       inkscape:collect="always"
       xlink:href="#m"
       id="linearGradient1038"
       gradientUnits="userSpaceOnUse"
       x1="67.374001"
       y1="176.85001"
       x2="111.31"
       y2="100.74" />
    <linearGradient
       inkscape:collect="always"
       xlink:href="#k"
       id="linearGradient1040"
       gradientUnits="userSpaceOnUse"
       gradientTransform="matrix(0.057755,0,0,0.057755,7.8079,-1.6932)"
       x1="384.25"
       y1="258.07999"
       x2="384.25"
       y2="656.21002" />
  </defs>
  <g
     transform="translate(-16.69055,-13.84781)"
     id="g104">
    <g
       transform="translate(0,0.37181)"
       id="g102">
      <path
         d="m 30.438,13.476 0.66125,1.3403 3.5868,7.2676 9.4994,1.3806 -6.8738,6.7001 1.6226,9.4605 -8.4964,-4.4668 -8.4965,4.467 1.6228,-9.4609 -6.8736,-6.7003 9.4993,-1.3802 z m -3e-5,3.3324 -3.2688,6.6236 -7.3095,1.0622 5.2893,5.1554 -1.2488,7.2799 6.5377,-3.4372 6.5377,3.4373 -1.2485,-7.2802 5.2893,-5.1554 -7.3094,-1.062 z"
         color="#000000"
         color-rendering="auto"
         dominant-baseline="auto"
         fill="url(#l)"
         fill-opacity="0.98101"
         image-rendering="auto"
         shape-rendering="auto"
         solid-color="#000000"
         style="font-variant-ligatures:normal;font-variant-position:normal;font-variant-caps:normal;font-variant-numeric:normal;font-variant-alternates:normal;font-feature-settings:normal;text-indent:0;text-decoration:none;text-decoration-line:none;text-decoration-style:solid;text-decoration-color:#000000;text-transform:none;text-orientation:mixed;white-space:normal;shape-padding:0;isolation:auto;mix-blend-mode:normal;fill:url(#linearGradient1036);paint-order:normal"
         id="path94" />
      <path
         d="m 30.438,14.315 0.32834,0.66513 3.6735,7.4432 8.9482,1.3002 -6.4751,6.3114 1.5287,8.912 -8.0037,-4.2074 -8.0036,4.2076 1.5286,-8.9123 -6.4748,-6.3115 8.948,-1.3002 z m -2.1e-5,1.6551 -3.5152,7.1228 -7.8606,1.1418 5.6878,5.5445 -1.3424,7.8284 7.0304,-3.6962 7.0306,3.6963 -1.343,-7.8286 5.6879,-5.544 -7.8603,-1.1422 z"
         color="#000000"
         color-rendering="auto"
         dominant-baseline="auto"
         fill="#ffe680"
         fill-opacity="0.98101"
         image-rendering="auto"
         shape-rendering="auto"
         solid-color="#000000"
         style="font-variant-ligatures:normal;font-variant-position:normal;font-variant-caps:normal;font-variant-numeric:normal;font-variant-alternates:normal;font-feature-settings:normal;text-indent:0;text-decoration:none;text-decoration-line:none;text-decoration-style:solid;text-decoration-color:#000000;text-transform:none;text-orientation:mixed;white-space:normal;shape-padding:0;isolation:auto;mix-blend-mode:normal;paint-order:normal"
         id="path96" />
      <path
         transform="matrix(-0.18904,-0.10914,-0.10914,0.18904,62.476,8.2467)"
         d="m 111.31,100.74 -2.5325,38.823 30.545,24.095 -37.705,9.5883 -13.477,36.496 -20.771,-32.897 -38.875,-1.5394 24.868,-29.92 -10.549,-37.448 36.14,14.405 z"
         fill="url(#m)"
         style="fill:url(#linearGradient1038);paint-order:normal"
         id="path98" />
      <path
         d="m 30.438,15.142 -3.7585,7.6156 -8.4043,1.2212 4.1134,4.0095 a 20.886,10.443 0 0 0 8.6979,0.96176 20.886,10.443 0 0 0 7.0732,-0.6423 l 4.4411,-4.329 -8.4043,-1.2212 z"
         color="#000000"
         color-rendering="auto"
         dominant-baseline="auto"
         fill="url(#k)"
         image-rendering="auto"
         shape-rendering="auto"
         solid-color="#000000"
         style="font-variant-ligatures:normal;font-variant-position:normal;font-variant-caps:normal;font-variant-numeric:normal;font-variant-alternates:normal;font-feature-settings:normal;text-indent:0;text-decoration:none;text-decoration-line:none;text-decoration-style:solid;text-decoration-color:#000000;text-transform:none;text-orientation:mixed;white-space:normal;shape-padding:0;isolation:auto;mix-blend-mode:normal;fill:url(#linearGradient1040);paint-order:normal"
         id="path100" />
    </g>
  </g>
  <g
     transform="translate(14.135519,-13.84781)"
     id="g974">
    <g
       transform="translate(0,0.37181)"
       id="g972">
      <path
         d="m 30.438,13.476 0.66125,1.3403 3.5868,7.2676 9.4994,1.3806 -6.8738,6.7001 1.6226,9.4605 -8.4964,-4.4668 -8.4965,4.467 1.6228,-9.4609 -6.8736,-6.7003 9.4993,-1.3802 z m -3e-5,3.3324 -3.2688,6.6236 -7.3095,1.0622 5.2893,5.1554 -1.2488,7.2799 6.5377,-3.4372 6.5377,3.4373 -1.2485,-7.2802 5.2893,-5.1554 -7.3094,-1.062 z"
         color="#000000"
         color-rendering="auto"
         dominant-baseline="auto"
         fill="url(#l)"
         fill-opacity="0.98101"
         image-rendering="auto"
         shape-rendering="auto"
         solid-color="#000000"
         style="font-variant-ligatures:normal;font-variant-position:normal;font-variant-caps:normal;font-variant-numeric:normal;font-variant-alternates:normal;font-feature-settings:normal;text-indent:0;text-decoration:none;text-decoration-line:none;text-decoration-style:solid;text-decoration-color:#000000;text-transform:none;text-orientation:mixed;white-space:normal;shape-padding:0;isolation:auto;mix-blend-mode:normal;fill:url(#linearGradient976);paint-order:normal"
         id="path964" />
      <path
         d="m 30.438,14.315 0.32834,0.66513 3.6735,7.4432 8.9482,1.3002 -6.4751,6.3114 1.5287,8.912 -8.0037,-4.2074 -8.0036,4.2076 1.5286,-8.9123 -6.4748,-6.3115 8.948,-1.3002 z m -2.1e-5,1.6551 -3.5152,7.1228 -7.8606,1.1418 5.6878,5.5445 -1.3424,7.8284 7.0304,-3.6962 7.0306,3.6963 -1.343,-7.8286 5.6879,-5.544 -7.8603,-1.1422 z"
         color="#000000"
         color-rendering="auto"
         dominant-baseline="auto"
         fill="#ffe680"
         fill-opacity="0.98101"
         image-rendering="auto"
         shape-rendering="auto"
         solid-color="#000000"
         style="font-variant-ligatures:normal;font-variant-position:normal;font-variant-caps:normal;font-variant-numeric:normal;font-variant-alternates:normal;font-feature-settings:normal;text-indent:0;text-decoration:none;text-decoration-line:none;text-decoration-style:solid;text-decoration-color:#000000;text-transform:none;text-orientation:mixed;white-space:normal;shape-padding:0;isolation:auto;mix-blend-mode:normal;paint-order:normal"
         id="path966" />
      <path
         transform="matrix(-0.18904,-0.10914,-0.10914,0.18904,62.476,8.2467)"
         d="m 111.31,100.74 -2.5325,38.823 30.545,24.095 -37.705,9.5883 -13.477,36.496 -20.771,-32.897 -38.875,-1.5394 24.868,-29.92 -10.549,-37.448 36.14,14.405 z"
         fill="url(#m)"
         style="fill:url(#linearGradient978);paint-order:normal"
         id="path968" />
      <path
         d="m 30.438,15.142 -3.7585,7.6156 -8.4043,1.2212 4.1134,4.0095 a 20.886,10.443 0 0 0 8.6979,0.96176 20.886,10.443 0 0 0 7.0732,-0.6423 l 4.4411,-4.329 -8.4043,-1.2212 z"
         color="#000000"
         color-rendering="auto"
         dominant-baseline="auto"
         fill="url(#k)"
         image-rendering="auto"
         shape-rendering="auto"
         solid-color="#000000"
         style="font-variant-ligatures:normal;font-variant-position:normal;font-variant-caps:normal;font-variant-numeric:normal;font-variant-alternates:normal;font-feature-settings:normal;text-indent:0;text-decoration:none;text-decoration-line:none;text-decoration-style:solid;text-decoration-color:#000000;text-transform:none;text-orientation:mixed;white-space:normal;shape-padding:0;isolation:auto;mix-blend-mode:normal;fill:url(#linearGradient980);paint-order:normal"
         id="path970" />
    </g>
  </g>
  <g
     transform="translate(44.961585,-13.84781)"
     id="g992">
    <g
       transform="translate(0,0.37181)"
       id="g990">
      <path
         d="m 30.438,13.476 0.66125,1.3403 3.5868,7.2676 9.4994,1.3806 -6.8738,6.7001 1.6226,9.4605 -8.4964,-4.4668 -8.4965,4.467 1.6228,-9.4609 -6.8736,-6.7003 9.4993,-1.3802 z m -3e-5,3.3324 -3.2688,6.6236 -7.3095,1.0622 5.2893,5.1554 -1.2488,7.2799 6.5377,-3.4372 6.5377,3.4373 -1.2485,-7.2802 5.2893,-5.1554 -7.3094,-1.062 z"
         color="#000000"
         color-rendering="auto"
         dominant-baseline="auto"
         fill="url(#l)"
         fill-opacity="0.98101"
         image-rendering="auto"
         shape-rendering="auto"
         solid-color="#000000"
         style="font-variant-ligatures:normal;font-variant-position:normal;font-variant-caps:normal;font-variant-numeric:normal;font-variant-alternates:normal;font-feature-settings:normal;text-indent:0;text-decoration:none;text-decoration-line:none;text-decoration-style:solid;text-decoration-color:#000000;text-transform:none;text-orientation:mixed;white-space:normal;shape-padding:0;isolation:auto;mix-blend-mode:normal;fill:url(#linearGradient994);paint-order:normal"
         id="path982" />
      <path
         d="m 30.438,14.315 0.32834,0.66513 3.6735,7.4432 8.9482,1.3002 -6.4751,6.3114 1.5287,8.912 -8.0037,-4.2074 -8.0036,4.2076 1.5286,-8.9123 -6.4748,-6.3115 8.948,-1.3002 z m -2.1e-5,1.6551 -3.5152,7.1228 -7.8606,1.1418 5.6878,5.5445 -1.3424,7.8284 7.0304,-3.6962 7.0306,3.6963 -1.343,-7.8286 5.6879,-5.544 -7.8603,-1.1422 z"
         color="#000000"
         color-rendering="auto"
         dominant-baseline="auto"
         fill="#ffe680"
         fill-opacity="0.98101"
         image-rendering="auto"
         shape-rendering="auto"
         solid-color="#000000"
         style="font-variant-ligatures:normal;font-variant-position:normal;font-variant-caps:normal;font-variant-numeric:normal;font-variant-alternates:normal;font-feature-settings:normal;text-indent:0;text-decoration:none;text-decoration-line:none;text-decoration-style:solid;text-decoration-color:#000000;text-transform:none;text-orientation:mixed;white-space:normal;shape-padding:0;isolation:auto;mix-blend-mode:normal;paint-order:normal"
         id="path984" />
      <path
         transform="matrix(-0.18904,-0.10914,-0.10914,0.18904,62.476,8.2467)"
         d="m 111.31,100.74 -2.5325,38.823 30.545,24.095 -37.705,9.5883 -13.477,36.496 -20.771,-32.897 -38.875,-1.5394 24.868,-29.92 -10.549,-37.448 36.14,14.405 z"
         fill="url(#m)"
         style="fill:url(#linearGradient996);paint-order:normal"
         id="path986" />
      <path
         d="m 30.438,15.142 -3.7585,7.6156 -8.4043,1.2212 4.1134,4.0095 a 20.886,10.443 0 0 0 8.6979,0.96176 20.886,10.443 0 0 0 7.0732,-0.6423 l 4.4411,-4.329 -8.4043,-1.2212 z"
         color="#000000"
         color-rendering="auto"
         dominant-baseline="auto"
         fill="url(#k)"
         image-rendering="auto"
         shape-rendering="auto"
         solid-color="#000000"
         style="font-variant-ligatures:normal;font-variant-position:normal;font-variant-caps:normal;font-variant-numeric:normal;font-variant-alternates:normal;font-feature-settings:normal;text-indent:0;text-decoration:none;text-decoration-line:none;text-decoration-style:solid;text-decoration-color:#000000;text-transform:none;text-orientation:mixed;white-space:normal;shape-padding:0;isolation:auto;mix-blend-mode:normal;fill:url(#linearGradient998);paint-order:normal"
         id="path988" />
    </g>
  </g>
  <g
     transform="translate(75.787655,-13.84781)"
     id="g1010">
    <g
       transform="translate(0,0.37181)"
       id="g1008">
      <path
         d="m 30.438,13.476 0.66125,1.3403 3.5868,7.2676 9.4994,1.3806 -6.8738,6.7001 1.6226,9.4605 -8.4964,-4.4668 -8.4965,4.467 1.6228,-9.4609 -6.8736,-6.7003 9.4993,-1.3802 z m -3e-5,3.3324 -3.2688,6.6236 -7.3095,1.0622 5.2893,5.1554 -1.2488,7.2799 6.5377,-3.4372 6.5377,3.4373 -1.2485,-7.2802 5.2893,-5.1554 -7.3094,-1.062 z"
         color="#000000"
         color-rendering="auto"
         dominant-baseline="auto"
         fill="url(#l)"
         fill-opacity="0.98101"
         image-rendering="auto"
         shape-rendering="auto"
         solid-color="#000000"
         style="font-variant-ligatures:normal;font-variant-position:normal;font-variant-caps:normal;font-variant-numeric:normal;font-variant-alternates:normal;font-feature-settings:normal;text-indent:0;text-decoration:none;text-decoration-line:none;text-decoration-style:solid;text-decoration-color:#000000;text-transform:none;text-orientation:mixed;white-space:normal;shape-padding:0;isolation:auto;mix-blend-mode:normal;fill:url(#linearGradient1012);paint-order:normal"
         id="path1000" />
      <path
         d="m 30.438,14.315 0.32834,0.66513 3.6735,7.4432 8.9482,1.3002 -6.4751,6.3114 1.5287,8.912 -8.0037,-4.2074 -8.0036,4.2076 1.5286,-8.9123 -6.4748,-6.3115 8.948,-1.3002 z m -2.1e-5,1.6551 -3.5152,7.1228 -7.8606,1.1418 5.6878,5.5445 -1.3424,7.8284 7.0304,-3.6962 7.0306,3.6963 -1.343,-7.8286 5.6879,-5.544 -7.8603,-1.1422 z"
         color="#000000"
         color-rendering="auto"
         dominant-baseline="auto"
         fill="#ffe680"
         fill-opacity="0.98101"
         image-rendering="auto"
         shape-rendering="auto"
         solid-color="#000000"
         style="font-variant-ligatures:normal;font-variant-position:normal;font-variant-caps:normal;font-variant-numeric:normal;font-variant-alternates:normal;font-feature-settings:normal;text-indent:0;text-decoration:none;text-decoration-line:none;text-decoration-style:solid;text-decoration-color:#000000;text-transform:none;text-orientation:mixed;white-space:normal;shape-padding:0;isolation:auto;mix-blend-mode:normal;paint-order:normal"
         id="path1002" />
      <path
         transform="matrix(-0.18904,-0.10914,-0.10914,0.18904,62.476,8.2467)"
         d="m 111.31,100.74 -2.5325,38.823 30.545,24.095 -37.705,9.5883 -13.477,36.496 -20.771,-32.897 -38.875,-1.5394 24.868,-29.92 -10.549,-37.448 36.14,14.405 z"
         fill="url(#m)"
         style="fill:url(#linearGradient1014);paint-order:normal"
         id="path1004" />
      <path
         d="m 30.438,15.142 -3.7585,7.6156 -8.4043,1.2212 4.1134,4.0095 a 20.886,10.443 0 0 0 8.6979,0.96176 20.886,10.443 0 0 0 7.0732,-0.6423 l 4.4411,-4.329 -8.4043,-1.2212 z"
         color="#000000"
         color-rendering="auto"
         dominant-baseline="auto"
         fill="url(#k)"
         image-rendering="auto"
         shape-rendering="auto"
         solid-color="#000000"
         style="font-variant-ligatures:normal;font-variant-position:normal;font-variant-caps:normal;font-variant-numeric:normal;font-variant-alternates:normal;font-feature-settings:normal;text-indent:0;text-decoration:none;text-decoration-line:none;text-decoration-style:solid;text-decoration-color:#000000;text-transform:none;text-orientation:mixed;white-space:normal;shape-padding:0;isolation:auto;mix-blend-mode:normal;fill:url(#linearGradient1016);paint-order:normal"
         id="path1006" />
    </g>
  </g>
  <g
     transform="translate(106.61373,-13.84781)"
     id="g1028">
    <g
       transform="translate(0,0.37181)"
       id="g1026">
      <path
         d="m 30.438,13.476 0.66125,1.3403 3.5868,7.2676 9.4994,1.3806 -6.8738,6.7001 1.6226,9.4605 -8.4964,-4.4668 -8.4965,4.467 1.6228,-9.4609 -6.8736,-6.7003 9.4993,-1.3802 z m -3e-5,3.3324 -3.2688,6.6236 -7.3095,1.0622 5.2893,5.1554 -1.2488,7.2799 6.5377,-3.4372 6.5377,3.4373 -1.2485,-7.2802 5.2893,-5.1554 -7.3094,-1.062 z"
         color="#000000"
         color-rendering="auto"
         dominant-baseline="auto"
         fill="url(#l)"
         fill-opacity="0.98101"
         image-rendering="auto"
         shape-rendering="auto"
         solid-color="#000000"
         style="font-variant-ligatures:normal;font-variant-position:normal;font-variant-caps:normal;font-variant-numeric:normal;font-variant-alternates:normal;font-feature-settings:normal;text-indent:0;text-decoration:none;text-decoration-line:none;text-decoration-style:solid;text-decoration-color:#000000;text-transform:none;text-orientation:mixed;white-space:normal;shape-padding:0;isolation:auto;mix-blend-mode:normal;fill:url(#linearGradient1030);paint-order:normal"
         id="path1018" />
      <path
         d="m 30.438,14.315 0.32834,0.66513 3.6735,7.4432 8.9482,1.3002 -6.4751,6.3114 1.5287,8.912 -8.0037,-4.2074 -8.0036,4.2076 1.5286,-8.9123 -6.4748,-6.3115 8.948,-1.3002 z m -2.1e-5,1.6551 -3.5152,7.1228 -7.8606,1.1418 5.6878,5.5445 -1.3424,7.8284 7.0304,-3.6962 7.0306,3.6963 -1.343,-7.8286 5.6879,-5.544 -7.8603,-1.1422 z"
         color="#000000"
         color-rendering="auto"
         dominant-baseline="auto"
         fill="#ffe680"
         fill-opacity="0.98101"
         image-rendering="auto"
         shape-rendering="auto"
         solid-color="#000000"
         style="font-variant-ligatures:normal;font-variant-position:normal;font-variant-caps:normal;font-variant-numeric:normal;font-variant-alternates:normal;font-feature-settings:normal;text-indent:0;text-decoration:none;text-decoration-line:none;text-decoration-style:solid;text-decoration-color:#000000;text-transform:none;text-orientation:mixed;white-space:normal;shape-padding:0;isolation:auto;mix-blend-mode:normal;paint-order:normal"
         id="path1020" />
      <path
         transform="matrix(-0.18904,-0.10914,-0.10914,0.18904,62.476,8.2467)"
         d="m 111.31,100.74 -2.5325,38.823 30.545,24.095 -37.705,9.5883 -13.477,36.496 -20.771,-32.897 -38.875,-1.5394 24.868,-29.92 -10.549,-37.448 36.14,14.405 z"
         fill="url(#m)"
         style="fill:url(#linearGradient1032);paint-order:normal"
         id="path1022" />
      <path
         d="m 30.438,15.142 -3.7585,7.6156 -8.4043,1.2212 4.1134,4.0095 a 20.886,10.443 0 0 0 8.6979,0.96176 20.886,10.443 0 0 0 7.0732,-0.6423 l 4.4411,-4.329 -8.4043,-1.2212 z"
         color="#000000"
         color-rendering="auto"
         dominant-baseline="auto"
         fill="url(#k)"
         image-rendering="auto"
         shape-rendering="auto"
         solid-color="#000000"
         style="font-variant-ligatures:normal;font-variant-position:normal;font-variant-caps:normal;font-variant-numeric:normal;font-variant-alternates:normal;font-feature-settings:normal;text-indent:0;text-decoration:none;text-decoration-line:none;text-decoration-style:solid;text-decoration-color:#000000;text-transform:none;text-orientation:mixed;white-space:normal;shape-padding:0;isolation:auto;mix-blend-mode:normal;fill:url(#linearGradient1034);paint-order:normal"
         id="path1024" />
    </g>
  </g>
</svg>
