<?xml version="1.0" encoding="UTF-8" standalone="no"?>
<svg
   xmlns:dc="http://purl.org/dc/elements/1.1/"
   xmlns:cc="http://creativecommons.org/ns#"
   xmlns:rdf="http://www.w3.org/1999/02/22-rdf-syntax-ns#"
   xmlns:svg="http://www.w3.org/2000/svg"
   xmlns="http://www.w3.org/2000/svg"
   xmlns:sodipodi="http://sodipodi.sourceforge.net/DTD/sodipodi-0.dtd"
   xmlns:inkscape="http://www.inkscape.org/namespaces/inkscape"
   enable-background="new 0 0 1920 1250"
   version="1.1"
   viewBox="0 0 1920 1250"
   xml:space="preserve"
   id="svg8"
   sodipodi:docname="image-list.svg"
   inkscape:version="1.0.1 (1.0.1+r74)"><metadata
   id="metadata14"><rdf:RDF><cc:Work
       rdf:about=""><dc:format>image/svg+xml</dc:format><dc:type
         rdf:resource="http://purl.org/dc/dcmitype/StillImage" /><dc:title></dc:title></cc:Work></rdf:RDF></metadata><defs
   id="defs12" /><sodipodi:namedview
   pagecolor="#ffffff"
   bordercolor="#666666"
   borderopacity="1"
   objecttolerance="10"
   gridtolerance="10"
   guidetolerance="10"
   inkscape:pageopacity="0"
   inkscape:pageshadow="2"
   inkscape:window-width="1920"
   inkscape:window-height="1009"
   id="namedview10"
   showgrid="false"
   inkscape:pagecheckerboard="true"
   inkscape:zoom="0.6704"
   inkscape:cx="960"
   inkscape:cy="625"
   inkscape:window-x="0"
   inkscape:window-y="34"
   inkscape:window-maximized="1"
   inkscape:current-layer="svg8" />
<g
   fill="#594a42"
   id="g6"
   style="fill:#26358a;fill-opacity:1">
	<path
   d="M 1227.8,605.5 780.21,347.08 c -18.576,-10.725 -33.775,-1.95 -33.775,19.5 v 516.83 c 0,21.45 15.199,30.225 33.775,19.5 L 1227.8,644.49 c 18.576,-10.725 18.576,-28.275 0,-39 z"
   id="path2"
   style="fill:#26358a;fill-opacity:1" />
	<path
   d="M 1542.1,384.71 C 1511.007,311.198 1466.5,245.18 1409.82,188.5 1353.136,131.815 1287.12,87.31 1213.61,56.22 1137.49,24.023 1056.64,7.699 973.32,7.699 890,7.699 809.15,24.024 733.03,56.221 659.518,87.314 593.5,131.82 536.82,188.501 c -56.685,56.684 -101.19,122.7 -132.28,196.21 -32.196,76.12 -48.521,156.97 -48.521,240.29 0,83.32 16.325,164.17 48.521,240.29 31.093,73.512 75.599,139.53 132.28,196.21 56.684,56.685 122.7,101.19 196.21,132.28 76.121,32.196 156.97,48.521 240.29,48.521 83.32,0 164.17,-16.325 240.29,-48.521 73.512,-31.093 139.53,-75.6 196.21,-132.28 56.685,-56.684 101.19,-122.7 132.28,-196.21 32.196,-76.12 48.521,-156.97 48.521,-240.29 0,-83.32 -16.325,-164.17 -48.521,-240.29 z m -568.79,807.6 C 660.5,1192.31 406,937.82 406,625 406,312.18 660.49,57.69 973.31,57.69 c 312.82,0 567.31,254.49 567.31,567.31 0,312.82 -254.49,567.31 -567.31,567.31 z"
   id="path4"
   style="fill:#26358a;fill-opacity:1" />
</g>
</svg>
