<?xml version="1.0" encoding="UTF-8" standalone="no"?>
<svg
   xmlns:osb="http://www.openswatchbook.org/uri/2009/osb"
   xmlns:dc="http://purl.org/dc/elements/1.1/"
   xmlns:cc="http://creativecommons.org/ns#"
   xmlns:rdf="http://www.w3.org/1999/02/22-rdf-syntax-ns#"
   xmlns:svg="http://www.w3.org/2000/svg"
   xmlns="http://www.w3.org/2000/svg"
   xmlns:sodipodi="http://sodipodi.sourceforge.net/DTD/sodipodi-0.dtd"
   xmlns:inkscape="http://www.inkscape.org/namespaces/inkscape"
   version="1.1"
   id="svg2"
   width="535"
   height="103.89749"
   viewBox="0 0 535 103.89749"
   sodipodi:docname="logo.svg"
   inkscape:version="1.0.1 (1.0.1+r74)">
  <metadata
     id="metadata8">
    <rdf:RDF>
      <cc:Work
         rdf:about="">
        <dc:format>image/svg+xml</dc:format>
        <dc:type
           rdf:resource="http://purl.org/dc/dcmitype/StillImage" />
        <dc:title></dc:title>
      </cc:Work>
    </rdf:RDF>
  </metadata>
  <defs
     id="defs6">
    <inkscape:path-effect
       effect="powerstroke"
       id="path-effect1705"
       is_visible="true"
       lpeversion="1"
       offset_points="1.1880782,0.73330252 | 4.0784758,3.3277062 | 6.5275199,1.8992946"
       sort_points="true"
       interpolator_type="CentripetalCatmullRom"
       interpolator_beta="0.2"
       start_linecap_type="zerowidth"
       linejoin_type="round"
       miter_limit="4"
       scale_width="1"
       end_linecap_type="zerowidth" />
    <inkscape:path-effect
       effect="bspline"
       id="path-effect1703"
       is_visible="true"
       lpeversion="1"
       weight="33.333333"
       steps="2"
       helper_size="0"
       apply_no_weight="true"
       apply_with_weight="true"
       only_selected="false" />
    <inkscape:path-effect
       effect="bspline"
       id="path-effect1695"
       is_visible="true"
       lpeversion="1"
       weight="33.333333"
       steps="2"
       helper_size="0"
       apply_no_weight="true"
       apply_with_weight="true"
       only_selected="false" />
    <inkscape:path-effect
       effect="bspline"
       id="path-effect1689"
       is_visible="true"
       lpeversion="1"
       weight="33.333333"
       steps="2"
       helper_size="0"
       apply_no_weight="true"
       apply_with_weight="true"
       only_selected="false" />
    <inkscape:path-effect
       effect="bspline"
       id="path-effect1685"
       is_visible="true"
       lpeversion="1"
       weight="33.333333"
       steps="2"
       helper_size="0"
       apply_no_weight="true"
       apply_with_weight="true"
       only_selected="false" />
    <inkscape:path-effect
       effect="bspline"
       id="path-effect1659"
       is_visible="true"
       lpeversion="1"
       weight="33.333333"
       steps="2"
       helper_size="0"
       apply_no_weight="true"
       apply_with_weight="true"
       only_selected="false" />
    <inkscape:path-effect
       effect="bspline"
       id="path-effect1615"
       is_visible="true"
       lpeversion="1"
       weight="33.333333"
       steps="2"
       helper_size="0"
       apply_no_weight="true"
       apply_with_weight="true"
       only_selected="false" />
    <inkscape:path-effect
       effect="bspline"
       id="path-effect1607"
       is_visible="true"
       lpeversion="1"
       weight="33.333333"
       steps="2"
       helper_size="0"
       apply_no_weight="true"
       apply_with_weight="true"
       only_selected="false" />
    <inkscape:path-effect
       effect="bspline"
       id="path-effect1603"
       is_visible="true"
       lpeversion="1"
       weight="33.333333"
       steps="2"
       helper_size="0"
       apply_no_weight="true"
       apply_with_weight="true"
       only_selected="false" />
    <inkscape:path-effect
       effect="bspline"
       id="path-effect1595"
       is_visible="true"
       lpeversion="1"
       weight="33.333333"
       steps="2"
       helper_size="0"
       apply_no_weight="true"
       apply_with_weight="true"
       only_selected="false" />
    <inkscape:path-effect
       effect="bspline"
       id="path-effect1589"
       is_visible="true"
       lpeversion="1"
       weight="33.333333"
       steps="2"
       helper_size="0"
       apply_no_weight="true"
       apply_with_weight="true"
       only_selected="false" />
    <inkscape:path-effect
       effect="bspline"
       id="path-effect1585"
       is_visible="true"
       lpeversion="1"
       weight="33.333333"
       steps="2"
       helper_size="0"
       apply_no_weight="true"
       apply_with_weight="true"
       only_selected="false" />
    <inkscape:path-effect
       effect="bspline"
       id="path-effect1581"
       is_visible="true"
       lpeversion="1"
       weight="33.333333"
       steps="2"
       helper_size="0"
       apply_no_weight="true"
       apply_with_weight="true"
       only_selected="false" />
    <linearGradient
       id="linearGradient1379"
       osb:paint="solid">
      <stop
         style="stop-color:#000000;stop-opacity:1;"
         offset="0"
         id="stop1377" />
    </linearGradient>
    <filter
       inkscape:collect="always"
       style="color-interpolation-filters:sRGB"
       id="filter1311"
       x="-0.0021211405"
       width="1.0042423"
       y="-0.011722341"
       height="1.0234447">
      <feGaussianBlur
         inkscape:collect="always"
         stdDeviation="0.46399947"
         id="feGaussianBlur1313" />
    </filter>
    <filter
       inkscape:collect="always"
       style="color-interpolation-filters:sRGB"
       id="filter1404"
       x="-0.0011844476"
       width="1.0023689"
       y="-0.0012159664"
       height="1.0024319">
      <feGaussianBlur
         inkscape:collect="always"
         stdDeviation="0.013505322"
         id="feGaussianBlur1406" />
    </filter>
    <filter
       inkscape:collect="always"
       style="color-interpolation-filters:sRGB"
       id="filter1649"
       x="-0.0059471838"
       width="1.0118943"
       y="-0.033572812"
       height="1.0671456">
      <feGaussianBlur
         inkscape:collect="always"
         stdDeviation="1.3009465"
         id="feGaussianBlur1651" />
    </filter>
  </defs>
  <sodipodi:namedview
     pagecolor="#ffffff"
     bordercolor="#666666"
     borderopacity="1"
     objecttolerance="10"
     gridtolerance="10"
     guidetolerance="10"
     inkscape:pageopacity="0"
     inkscape:pageshadow="2"
     inkscape:window-width="1920"
     inkscape:window-height="1009"
     id="namedview4"
     showgrid="false"
     inkscape:pagecheckerboard="true"
     inkscape:zoom="2.3121495"
     inkscape:cx="267.5"
     inkscape:cy="51.948746"
     inkscape:window-x="0"
     inkscape:window-y="34"
     inkscape:window-maximized="1"
     inkscape:current-layer="layer6"
     inkscape:document-rotation="0"
     fit-margin-top="5"
     fit-margin-left="5"
     fit-margin-right="5"
     fit-margin-bottom="5" />
  <g
     inkscape:groupmode="layer"
     id="layer1"
     inkscape:label="USA"
     style="display:inline"
     transform="translate(4.9456313,4.3292804)" />
  <g
     inkscape:groupmode="layer"
     id="layer2"
     inkscape:label="Red Line"
     style="display:inline"
     transform="translate(4.9456313,4.3292804)" />
  <g
     inkscape:groupmode="layer"
     id="layer3"
     inkscape:label="Blue Line"
     style="display:inline"
     transform="translate(4.9456313,4.3292804)" />
  <g
     inkscape:groupmode="layer"
     id="layer4"
     inkscape:label="American"
     style="display:inline;opacity:0.993"
     transform="translate(4.9456313,4.3292804)" />
  <g
     inkscape:groupmode="layer"
     id="layer6"
     inkscape:label="Swoop"
     transform="translate(4.9456313,4.3292804)">
    <g
       id="g1313">
      <g
         id="g1309"
         transform="matrix(0.4959794,0,0,0.49143137,76.800612,37.978085)"
         style="display:inline;filter:url(#filter1311)">
        <path
           d="m 92.046745,69.998938 0.689392,2.226376 1.134789,2.964142 1.622778,2.852488 1.131442,1.918188 1.47553,1.672065 1.229405,1.131442 0.491945,0.885014 -0.344392,0.393677 -0.246124,0.393373 0.88532,2.26258 0.88532,0.885318 0.78705,1.623083 1.08185,1.770331 1.37726,2.508401 0.39337,2.311562 0.14756,3.639538 0.19653,0.540926 -0.0983,1.032868 -0.73806,0.39368 0.0986,0.58991 -0.19684,0.58991 0.0983,0.73806 0.14755,0.58991 -0.83603,0.98359 -0.9343,0.44266 -1.18043,0.049 -0.44266,0.49194 -0.73776,0.29511 -0.393678,-0.14755 -0.344088,-0.29511 -0.09857,-0.88532 -0.24582,-1.03287 -1.033175,-1.5738 -1.081853,-0.68878 -1.180424,-0.0983 -0.246124,0.39338 -0.934299,-1.32768 -0.196839,-1.082152 -0.786746,-1.22971 -0.540927,-0.344087 -0.49164,0.639497 -0.540926,-0.09827 -0.639802,-1.524815 -0.885014,-1.180424 -0.885317,-1.623083 -0.787051,-0.934299 -1.081852,-1.131442 0.639497,-0.737765 0.983281,-1.672064 -0.04898,-0.491945 -1.376959,-0.295106 -0.491944,0.196535 0.09827,0.196838 0.787051,0.295106 -0.442659,1.376958 -0.246125,0.147553 -0.540926,-1.229709 -0.393373,-1.47553 -0.09827,-0.836032 0.442659,-1.426244 V 83.156099 L 86.148885,82.024961 85.755208,81.090358 84.181411,80.696985 83.591503,80.50045 83.099559,79.7134 82.066688,79.221759 81.722296,78.188584 80.886264,77.893478 80.148499,76.76234 78.869808,76.319681 77.98449,75.877022 h -0.78705 l -1.229405,0.246125 -0.04929,0.589907 0.246124,0.295411 -0.147553,0.344087 -0.934299,-0.04898 -1.131138,1.082156 -1.082157,0.589908 h -1.180423 l -0.983585,0.393373 -0.09827,-0.836032 -0.49164,-0.589908 -0.885318,-0.344392 -0.491945,-0.442658 -2.459114,-1.180424 -2.311562,-0.540926 -1.327977,0.196534 -1.819617,0.147553 -1.819617,0.639498 -1.058427,0.186494 -0.07241,-2.449075 -0.787051,-0.590211 -0.540622,-0.540927 0.09827,-0.934299 3.098612,-0.393373 7.770718,-0.885318 2.065741,-0.196534 1.65381,0.08518 0.787051,1.180424 0.442659,0.442658 2.463678,0.15668 3.2918,-0.196534 6.544659,-0.393373 1.656853,-0.205357 1.553717,0.06237 0.129908,0.885014 0.679352,0.246124 0.07119,-1.408598 -0.464867,-1.269564 0.39824,-0.438096 1.690014,0.138426 1.569842,0.10344 z m 3.815081,40.283482 0.737765,-0.19653 0.393373,-0.0736 0.442659,-0.71342 0.713122,-0.49165 0.393677,0.14725 0.516283,0.0983 0.122911,0.31975 -1.057514,0.36903 -1.278691,0.44266 -0.713426,0.36904 -0.261641,-0.26773 z m 4.107144,-1.52421 0.36873,0.31975 0.83603,-0.6395 1.62309,-1.27869 1.13144,-1.18042 0.7621,-2.01646 0.29541,-0.51628 0.049,-1.03317 -0.22148,0.14755 -0.2951,0.86067 -0.44266,1.4016 -0.98359,1.59844 -1.32767,1.2787 -1.03318,0.59021 -0.763621,0.47156 z"
           fill="#d3d3d3"
           stroke="#ffffff"
           stroke-width="0.228175"
           id="path1011"
           style="fill:#aaaaaa;fill-opacity:1;stroke:#aaaaaa;stroke-opacity:1" />
        <path
           d="m 128.85284,-20.273057 0.26438,-0.327659 0.33162,-1.001231 -0.77367,-0.278068 -0.14725,-0.9343 -1.18042,-0.344391 -0.0983,-0.836033 -2.21329,-7.131524 -1.40008,-4.424459 -0.27259,-0.0015 -0.19654,0.491944 -0.19653,-0.147553 -0.29541,-0.295106 -0.44266,0.590212 -0.0146,1.5309 0.0949,1.724088 0.5899,0.836033 v 1.229709 l -1.13114,1.540331 -0.78705,0.344088 v 0.344391 l 0.3444,0.540927 v 2.606667 l -0.24613,2.803507 -0.049,1.47553 0.29511,0.393373 -0.049,1.376958 -0.14755,0.540926 0.2948,0.215701 5.10747,-1.34623 0.6617,-0.183453 0.5607,-0.843638 1.09524,-0.4959 z"
           fill="#d3d3d3"
           stroke="#ffffff"
           stroke-width="0.228175"
           id="path1013"
           style="fill:#aaaaaa;fill-opacity:1;stroke:#aaaaaa;stroke-opacity:1" />
        <g
           fill="#d3d3d3"
           stroke="#ffffff"
           stroke-width="0.75"
           id="g1021"
           transform="matrix(0.30423293,0,0,0.30423293,-139.11552,-63.601911)"
           style="fill:#aaaaaa;fill-opacity:1;stroke:#aaaaaa;stroke-opacity:1">
          <path
             d="m 697.86,177.24 -3.233,-8.245 -2.264,-9.053 -2.425,-3.233 -2.586,-1.778 -1.617,1.132 -3.88,1.778 -1.939,5.011 -2.748,3.718 -1.132,0.646 -1.455,-0.646 c 0,0 -2.587,-1.455 -2.425,-2.102 0.161,-0.646 0.484,-5.012 0.484,-5.012 l 3.396,-1.293 0.808,-3.395 0.647,-2.586 2.425,-1.617 -0.323,-10.023 -1.617,-2.263 -1.293,-0.809 -0.809,-2.102 0.809,-0.808 1.616,0.323 0.162,-1.617 -2.425,-2.263 -1.294,-2.586 h -2.586 l -4.526,-1.455 -5.497,-3.395 h -2.748 l -0.646,0.647 -0.97,-0.485 -3.072,-2.264 -2.909,1.778 -2.91,2.263 0.323,3.557 0.97,0.323 2.102,0.485 0.485,0.809 -2.587,0.808 -2.586,0.324 -1.455,1.778 -0.323,2.102 0.323,1.616 0.323,5.497 -3.557,2.102 -0.646,-0.162 v -4.203 l 1.293,-2.425 0.646,-2.425 -0.808,-0.809 -1.94,0.809 -0.97,4.203 -2.748,1.131 -1.778,1.94 -0.162,0.97 0.646,0.809 -0.646,2.586 -2.263,0.485 v 1.132 l 0.808,2.425 -1.131,6.143 -1.617,4.042 0.646,4.688 0.485,1.131 -0.809,2.425 -0.323,0.808 -0.323,2.748 3.557,5.981 2.91,6.466 1.455,4.85 -0.809,4.688 -0.97,5.981 -2.425,5.173 -0.324,2.748 -3.259,3.085 4.409,-0.162 21.418,-2.264 7.278,-0.987 0.097,1.667 6.852,-1.213 10.298,-1.503 3.854,-0.461 0.138,-0.587 0.162,-1.455 2.102,-3.718 2,-1.738 -0.222,-5.052 1.597,-1.597 1.091,-0.343 0.222,-3.557 1.536,-3.031 1.051,0.606 0.162,0.646 0.808,0.162 1.94,-0.97 -0.32,-9.55 z"
             id="path1017"
             style="fill:#aaaaaa;fill-opacity:1;stroke:#aaaaaa;stroke-opacity:1" />
          <path
             d="m 581.62,82.059 1.829,-2.058 2.172,-0.8 5.373,-3.887 2.286,-0.571 0.457,0.457 -5.144,5.144 -3.315,1.943 -2.058,0.915 z m 86.17,32.131 0.646,2.506 3.233,0.162 1.293,-1.212 c 0,0 -0.081,-1.455 -0.404,-1.617 -0.323,-0.162 -1.616,-1.859 -1.616,-1.859 l -2.183,0.243 -1.616,0.161 -0.323,1.132 0.97,0.49 z m -100.3,-2.98 0.716,-0.581 2.749,-0.809 3.556,-2.263 v -0.97 l 0.647,-0.646 5.981,-0.97 2.425,-1.94 4.364,-2.102 0.162,-1.293 1.939,-2.91 1.778,-0.808 1.294,-1.778 2.263,-2.264 4.365,-2.425 4.688,-0.485 1.132,1.132 -0.323,0.97 -3.718,0.97 -1.455,3.071 -2.264,0.809 -0.484,2.425 -2.425,3.233 -0.324,2.587 0.809,0.485 0.97,-1.132 3.557,-2.91 1.294,1.293 h 2.263 l 3.233,0.97 1.455,1.132 1.455,3.071 2.748,2.748 3.88,-0.161 1.455,-0.97 1.616,1.293 1.617,0.485 1.293,-0.808 h 1.132 l 1.616,-0.97 4.042,-3.557 3.395,-1.131 6.628,-0.323 4.526,-1.94 2.587,-1.293 1.455,0.162 v 5.658 l 0.484,0.323 2.91,0.808 1.939,-0.485 6.144,-1.617 1.132,-1.131 1.455,0.485 v 6.951 l 3.232,3.072 1.294,0.646 1.293,0.97 -1.293,0.323 -0.809,-0.323 -3.718,-0.485 -2.102,0.647 -2.264,-0.162 -3.233,1.455 h -1.778 l -5.819,-1.293 -5.173,0.162 -1.94,2.586 -6.951,0.647 -2.425,0.808 -1.132,3.072 -1.293,1.131 -0.485,-0.162 -1.455,-1.617 -4.526,2.425 h -0.646 l -1.132,-1.617 -0.809,0.162 -1.939,4.365 -0.97,4.042 -3.182,7.001 -1.177,-1.035 -1.371,-1.031 -1.941,-10.288 -3.544,-1.37 -2.053,-2.286 -12.12,-2.744 -2.855,-1.029 -8.23,-2.173 -7.891,-1.143 -3.77,-5.15 z"
             id="path1019"
             style="fill:#aaaaaa;fill-opacity:1;stroke:#aaaaaa;stroke-opacity:1" />
        </g>
        <path
           d="m 117.8031,-16.731786 0.0961,-1.626429 -0.87954,-3.280848 -0.19653,-0.09827 -0.88532,-0.393373 0.24613,-0.885318 -0.24613,-0.639498 -0.82143,-1.411641 0.29511,-1.180423 -0.24582,-1.573797 -0.73777,-1.96717 -0.24521,-1.497435 8.03753,-2.048096 0.094,1.679974 0.58322,0.834511 v 1.229405 l -1.1281,1.538811 -0.78675,0.347738 -0.004,0.341045 0.39885,0.462434 -0.0946,2.463678 -0.18559,2.816893 -0.0694,1.690622 0.2951,0.393374 -0.049,1.390344 -0.14755,0.514154 0.3088,0.221177 -2.26289,0.458479 -1.36905,0.216005 z"
           fill="#d3d3d3"
           stroke="#ffffff"
           stroke-width="0.228175"
           id="path1023"
           style="fill:#aaaaaa;fill-opacity:1;stroke:#aaaaaa;stroke-opacity:1" />
        <path
           d="m 141.6428,-39.618925 0.5899,0.639498 0.68879,1.131138 v 0.590212 l -0.6395,1.426244 -0.59021,0.196838 -1.03287,0.9343 -1.47553,1.672368 H 138.79 c -0.19683,0 -0.29541,-0.639498 -0.29541,-0.639498 l -0.54092,0.04929 -0.29511,0.442659 -0.73776,0.442659 -0.29511,0.442659 0.49164,0.442659 -0.14725,0.196534 -0.14755,0.836337 -0.59021,-0.04929 v -0.491945 l -0.0983,-0.393373 -0.44235,0.09827 -0.54093,-0.983585 -0.6395,0.393373 0.39338,0.442659 0.0983,0.344392 -0.24612,0.393373 0.0983,0.934604 0.0493,0.491944 -0.49164,0.786747 -0.88532,0.147553 -0.0983,0.885318 -1.62309,0.934299 -0.39337,0.147553 -0.49194,-0.442659 -0.9343,1.081852 0.2951,0.983585 -0.44266,0.393373 -0.049,1.327977 -0.34196,1.904194 -0.74902,-0.351693 -0.14755,-0.934604 -1.18012,-0.344087 -0.0986,-0.836336 -2.21299,-7.131525 -1.42929,-4.45397 0.43201,-0.0359 0.46061,0.124735 v -0.78705 l 0.39824,-1.367832 0.78705,-1.426243 0.44266,-1.22971 -0.59021,-0.737765 v -1.819617 l 0.24612,-0.295106 0.24613,-0.836336 -0.0493,-0.442659 -0.049,-1.47553 0.54093,-1.47553 0.88501,-2.705239 0.6395,-1.278691 h 0.39368 l 0.39337,0.04929 v 0.344392 l 0.39337,0.688479 0.83604,0.196534 0.24612,-0.24582 v -0.295106 l 1.22971,-0.885318 0.54093,-0.540926 0.44235,0.04929 1.81962,0.737765 0.59021,0.295106 2.75422,9.098694 h 1.81962 l 0.24612,0.590212 0.049,1.475529 0.88532,0.68848 h 0.24612 l 0.049,-0.147553 -0.14725,-0.344392 0.83055,-0.04259 z m -6.3676,9.172319 0.467,-0.467302 0.41832,0.319749 0.17189,0.737765 -0.51628,0.270463 -0.53849,-0.86098 z m 2.0414,-1.794975 0.54093,0.565569 c 0,0 0.39337,0.02464 0.39337,-0.07362 0,-0.09827 0.0736,-0.614855 0.0736,-0.614855 l 0.27077,-0.24582 -0.24613,-0.540926 -0.61485,0.221482 -0.4168,0.687566 z"
           fill="#d3d3d3"
           stroke="#ffffff"
           stroke-width="0.228175"
           id="path1025"
           style="fill:#aaaaaa;fill-opacity:1;stroke:#aaaaaa;stroke-opacity:1" />
        <path
           d="m 126.80536,-9.1746398 -1.12445,-4.5501082 1.90754,-0.561309 0.66658,0.586257 1.00579,1.314286 0.81778,1.339233 -0.9124,0.494379 -0.39367,-0.04929 -0.34439,0.540926 -0.73777,0.590212 -0.88532,0.2920636 z"
           fill="#d3d3d3"
           stroke="#ffffff"
           stroke-width="0.228175"
           id="path1027"
           style="fill:#aaaaaa;fill-opacity:1;stroke:#aaaaaa;stroke-opacity:1" />
        <path
           d="m 113.51342,-6.1779455 -0.34439,-0.2951059 -0.78705,-0.048982 -0.68848,-0.5902119 -0.4962,-1.8646436 -1.05235,0.027685 -0.74324,-0.8238628 -5.89786,1.3331487 -13.082317,2.6559535 -2.290874,0.373598 -0.224524,-1.9677786 0.434749,-0.342262 0.393373,-0.3443917 0.295106,-0.4919446 0.540926,-0.3440875 0.590212,-0.5409261 0.147248,-0.4919447 0.639498,-0.8360323 0.344392,-0.295106 -0.04898,-0.295106 -0.393677,-0.934604 -0.540926,-0.04928 -0.589908,-1.868903 0.885318,-0.540926 1.327672,-0.442659 1.22971,-0.393373 0.983585,-0.147553 1.918189,-0.04929 0.589907,0.393373 0.491641,0.04929 0.639497,-0.393373 0.787051,-0.344088 1.573792,-0.147553 0.6395,-0.540926 0.54093,-0.983585 0.49194,-0.590212 h 0.6395 l 0.58991,-0.344087 0.0493,-0.688784 -0.44266,-0.639497 -0.0983,-0.442659 0.34439,-0.639498 v -0.442659 h -0.54093 l -0.54092,-0.24582 -0.24613,-0.344392 -0.049,-0.786746 1.77033,-1.672368 0.19654,-0.245821 0.44265,-0.885317 0.88532,-1.376959 0.83603,-1.131138 0.6395,-0.737765 0.73472,-0.555529 0.93735,-0.379074 1.67236,-0.393373 0.98359,0.04929 1.37696,-0.442658 2.30122,-0.630067 0.1585,1.51508 0.73777,1.96717 0.24582,1.573797 -0.29511,1.180424 0.78705,1.377262 0.24613,0.639498 -0.24613,0.885318 0.88532,0.393373 0.19653,0.09827 0.9343,3.344433 -0.16307,1.539419 -0.14755,3.295146 0.24612,1.672369 0.24613,1.082156 0.44235,2.212991 v 2.4591147 l -0.34408,0.6887834 0.55948,0.6063362 0.24247,0.5105029 -0.59021,0.5409261 0.0986,0.3933732 0.39338,-0.098267 0.44266,-0.3933732 0.68848,-0.7867464 0.34439,-0.1968387 0.49164,0.1968387 0.68878,0.049286 2.40983,-1.1804238 0.88532,-0.8360321 0.39337,-0.4426589 1.279,0.4919446 -1.03318,1.0818523 -1.18042,0.8853179 -2.16401,1.6230827 -0.78675,0.2951059 -1.77063,0.5902119 -1.22941,0.3440874 -0.35747,-0.1621561 -0.0742,-1.1220111 0.14756,-0.8363363 -0.0493,-0.6394976 -0.85581,-0.5168918 -1.37695,-0.2951059 -1.18043,-0.3440874 -1.11957,-0.5293653 z"
           fill="#d3d3d3"
           stroke="#ffffff"
           stroke-width="0.228175"
           id="path1029"
           style="fill:#aaaaaa;fill-opacity:1;stroke:#aaaaaa;stroke-opacity:1" />
        <path
           d="m 111.91316,4.756186 0.39793,-0.082447 0.70886,-0.3812038 0.36873,-0.7554104 0.49165,-0.6884791 0.98358,-0.9342994 V 1.6682218 l -0.73776,-0.4919446 -1.08216,-0.7377649 -0.29511,-0.78674636 -0.83603,-0.0982672 -0.0493,-0.34439168 -0.24613,-0.83603216 0.68878,-0.3443916 0.0493,-0.7377649 -0.39368,-0.3933732 0.0493,-0.4916404 0.58991,-0.9346035 v -0.9346036 l 0.82082,-0.8050003 -0.2802,-0.2053573 -0.76758,-0.058717 -0.69822,-0.5902119 -0.47156,-1.8606886 -1.06633,0.030727 -0.7469,-0.8226458 -5.50387,1.2771698 -13.082628,2.6556493 -2.705239,0.4426589 -0.188625,-1.983903 -1.631297,1.5418525 -0.393677,0.147553 -1.278387,0.9154369 0.885622,5.8224098 0.754802,2.9598822 1.086416,5.8598304 0.994841,-0.1941006 3.633454,-0.4569578 11.538638,-2.3319454 4.52608,-0.8588496 2.52513,-0.49377 0.0815,-0.072712 0.63949,-0.4916404 0.63889,-0.2160054 z"
           fill="#d3d3d3"
           stroke="#ffffff"
           stroke-width="0.228175"
           id="path1031"
           style="fill:#aaaaaa;fill-opacity:1;stroke:#aaaaaa;stroke-opacity:1" />
        <path
           d="m 113.30046,-6.266173 -0.70674,0.8317728 v 0.9346036 l -0.5899,0.9342993 -0.0493,0.4919447 0.39368,0.3933731 -0.0493,0.7377649 -0.68848,0.3440874 0.24582,0.83633636 0.0493,0.34408744 0.83603,0.0985715 0.29511,0.78674636 1.08215,0.73776484 0.73777,0.4919446 v 0.2458202 l -0.90722,0.8205163 -0.49195,0.6884791 -0.44266,0.8360321 -0.68848,0.3933731 -0.14086,0.4876854 -0.0736,0.3687303 -0.18528,0.7931353 0.33222,0.6826987 0.98359,0.8853178 1.47553,0.6884791 1.22971,0.1968387 0.049,0.4426589 -0.24582,0.295106 0.0983,0.8360321 h 0.24612 l 0.6395,-0.7377649 0.24582,-1.4755297 0.83603,-1.2297095 0.9346,-1.9671701 0.3444,-1.6723684 -0.19684,-0.3443917 -0.049,-2.85248793 -0.49195,-1.03287079 -0.34409,0.2458202 -0.83633,0.0982672 -0.14725,-0.14755297 0.34439,-0.29510591 0.6395,-0.5902119 0.0192,-0.3328308 -0.11682,-1.0447359 0.17432,-0.8360321 -0.0359,-0.5990346 -0.85429,-0.5324077 -1.54915,-0.3577779 -1.25892,-0.4201457 -1.08611,-0.4928573 z"
           fill="#d3d3d3"
           stroke="#ffffff"
           stroke-width="0.228175"
           id="path1033"
           style="fill:#aaaaaa;fill-opacity:1;stroke:#aaaaaa;stroke-opacity:1" />
        <path
           d="m 112.06831,5.8483823 0.11196,-0.6531881 0.11409,-0.5144579 -0.49377,0.1207804 -0.49134,0.1423811 -0.67114,0.5366668 0.52329,1.5342467 0.68878,1.7213499 0.6395,2.9510598 0.49164,1.918188 1.52481,-0.04928 1.86891,-0.3593 -0.68909,-2.247064 -0.29511,0.147553 -1.08215,-0.737765 -0.54093,-1.4262438 -0.58991,-1.0821566 -0.95742,-0.8731485 -0.26286,-0.6382807 0.11257,-0.4928573 z"
           fill="#d3d3d3"
           stroke="#ffffff"
           stroke-width="0.228175"
           id="path1035"
           style="fill:#aaaaaa;fill-opacity:1;stroke:#aaaaaa;stroke-opacity:1" />
        <path
           d="m 116.37625,13.192565 -1.82813,0.366297 -1.56467,0.0359 -0.56101,-2.106204 -0.58565,-2.7895122 -0.78279,-1.8825934 -0.39185,-1.3380164 -2.28357,0.4937701 -4.52577,0.8588495 -11.39383,2.2972629 0.344088,1.5248155 0.295106,1.72135 0.09827,-0.09857 0.639498,-0.737764 0.688783,-0.796482 0.737765,-0.187104 0.442659,-0.442658 0.540926,-0.7867468 0.393373,0.1965345 0.885318,-0.098267 0.786746,-0.6394976 0.6109,-0.4420504 0.56131,-0.147553 0.500463,0.3437832 0.885315,0.4426589 0.58991,0.5409262 0.36903,0.4673017 1.25405,0.5165873 v 0.885318 l 1.67206,0.393373 0.34835,0.164894 0.42958,-0.616984 0.8768,0.599339 -0.38881,0.755106 -0.23274,1.212368 -0.54093,0.787051 v 0.639497 l 0.19654,0.540926 1.54033,0.412236 1.31185,-0.01886 0.9343,0.295106 0.6395,0.09827 0.2951,-0.639498 -0.44235,-0.639497 v -0.540927 l -0.73777,-0.639497 -0.63949,-1.672064 0.39337,-1.623083 -0.0493,-0.639498 -0.39337,-0.3933726 c 0,0 0.44266,-0.4919446 0.44266,-0.6884791 0,-0.1965345 0.14725,-0.6394976 0.14725,-0.6394976 l 0.59021,-0.3933732 0.58991,-0.4919447 0.14755,0.295106 -0.44266,0.4919446 -0.39337,1.1311381 0.0983,0.3440874 0.54092,0.098267 0.14725,1.672368 -0.6395,0.295106 0.0986,1.081852 0.14724,-0.04928 0.3444,-0.590212 0.49164,0.540926 -0.49164,0.393373 -0.0983,1.032871 0.78675,1.032871 1.18072,0.147553 0.49164,-0.24582 0.9845,1.272606 0.41315,0.163069 2.02406,-0.85094 0.6109,-1.224233 -0.12169,-1.493784 z m -4.8586,2.744181 0.34439,0.762408 0.049,0.540926 0.34439,0.565569 c 0,0 0.27076,-0.270463 0.27076,-0.36873 0,-0.09827 -0.22148,-0.9343 -0.22148,-0.9343 l -0.22148,-0.713122 -0.56283,0.14299 z"
           fill="#d3d3d3"
           stroke="#ffffff"
           stroke-width="0.228175"
           id="path1037"
           style="fill:#aaaaaa;fill-opacity:1;stroke:#aaaaaa;stroke-opacity:1" />
        <path
           d="m 113.89675,17.345345 -0.0438,-0.592342 1.96322,-0.775794 -0.23456,0.979022 -0.88836,1.149696 -0.12717,1.395212 0.14055,1.031654 -0.55614,1.514472 -0.65836,0.58291 -0.44752,-1.411945 0.13569,-1.657765 0.48281,-1.272607 0.23122,-0.946164 z m 1.01614,8.609792 -17.698749,3.825729 -11.386526,1.606045 -2.031971,-0.114087 -0.786443,0.585953 -2.232765,0.06724 -2.550385,0.297844 -3.320398,0.491032 3.185015,-1.707051 -0.004,-0.631283 0.462434,-0.652884 3.210874,-3.498983 1.200807,1.362051 1.150914,0.293585 0.773664,-0.34713 0.680569,-0.399154 0.771839,0.408889 1.190768,-0.434444 0.570741,-1.38639 0.791614,0.164286 0.868585,-0.64832 0.547315,0.149986 0.860066,-1.11836 0.106178,-0.633717 -0.293281,-0.388201 0.305146,-0.568003 1.604524,-3.735068 0.187408,-1.744776 0.373902,-0.159113 0.662619,0.743241 1.197765,-0.09157 0.586866,-2.303956 0.850026,-0.170674 0.319445,-0.833903 0.784921,-0.714034 0.843029,-1.732607 0.02586,-1.541548 2.988184,1.163082 c 0.20717,0.10344 0.25311,-1.536072 0.25311,-1.536072 l 1.11137,0.486165 0.0207,0.893836 1.75968,0.395198 0.64893,0.357778 0.50503,0.625503 -0.19927,1.109842 -0.59235,0.788268 0.0335,0.626415 0.17919,0.563744 1.51478,0.385767 1.35414,0.01217 0.93369,0.291456 0.59112,0.09431 0.21753,0.939471 0.9705,0.122302 0.26408,0.365079 -0.13356,1.426853 0.41802,0.335569 -0.14573,0.587473 0.3739,0.240344 -0.0675,0.421363 -0.8196,-0.0289 0.0271,0.49164 0.69396,0.469432 0.0368,0.429577 0.53941,0.54336 0.14938,0.767884 -0.77671,0.420145 0.47825,0.454524 1.76486,-0.512937 1.10741,1.834525 z"
           fill="#d3d3d3"
           stroke="#ffffff"
           stroke-width="0.228175"
           id="path1039"
           style="fill:#aaaaaa;fill-opacity:1;stroke:#aaaaaa;stroke-opacity:1" />
        <path
           d="m 92.463544,9.1006323 0.338307,1.5044317 0.329484,1.834829 0.648321,-0.785225 0.688479,-0.934604 0.772143,-0.187103 0.442659,-0.442659 0.540926,-0.7867464 0.439617,0.1965345 0.885317,-0.098267 0.786747,-0.6394976 0.610595,-0.4420505 0.561614,-0.147553 0.39672,0.3091007 1.108627,0.5543124 0.58991,0.5409262 0.41801,0.3933731 -0.23182,1.6900136 -1.7752,-0.77336 -1.291472,-0.493466 -0.03073,1.575318 -0.836033,1.684538 -0.769709,0.738373 -0.362341,0.836641 -0.804392,0.152116 -0.273201,1.095847 -0.317315,1.201721 -1.207501,0.103743 -0.706733,-0.742024 -0.325833,0.17037 -0.19258,1.664154 -0.410714,1.075464 -1.508691,3.332872 0.272592,0.353214 -0.06237,0.580476 -0.854895,1.181945 -0.550053,-0.165502 -0.903268,0.657143 -0.77336,-0.174021 -0.608161,1.386085 c 0,0 -0.9918,0.435053 -1.193506,0.415886 -0.04898,-0.0046 -0.751455,-0.379683 -0.751455,-0.379683 l -0.710689,0.419538 -0.733201,0.317923 -1.139352,-0.270767 -0.341045,-0.355649 -0.666879,-0.919391 -0.956204,-0.604815 -0.520543,-1.102236 -1.303638,-1.05508 -0.196534,-0.688479 -0.787051,-0.442659 -0.246124,-0.491945 -0.07363,-1.59844 0.664141,-0.02464 0.589908,-0.24582 0.04928,-0.836032 0.491641,-0.442659 0.04928,-1.524815 0.295106,-1.180424 0.393374,-0.196534 0.393677,0.344391 0.147249,0.540926 0.540926,-0.295106 0.147553,-0.491944 -0.344392,-0.540926 V 14.71495 l 0.295106,-0.393373 0.688783,-1.032871 0.393374,-0.442659 0.639497,0.147553 0.688784,-0.491945 0.934299,-1.032871 0.688783,-1.180423 0.09827,-1.7213501 0.147249,-1.5245112 V 5.6162557 L 85.52519,4.6819564 85.820296,4.2392975 86.210627,3.8459243 87.272704,9.8779506 88.681606,9.6494717 92.475391,9.0896831 Z"
           fill="#d3d3d3"
           stroke="#ffffff"
           stroke-width="0.228175"
           id="path1041"
           style="fill:#aaaaaa;fill-opacity:1;stroke:#aaaaaa;stroke-opacity:1" />
        <path
           d="m 84.593038,-4.7845586 -1.853995,1.2333603 -1.180424,0.6884791 -1.032871,1.131138 -1.229709,1.18042378 -0.983586,0.24582021 -0.885013,0.14755297 -1.672369,0.78705059 -0.639497,0.0492857 -1.032871,-0.93460356 -1.573797,0.19653447 -0.78705,-0.44265891 -0.724379,-0.41101869 -1.488612,0.21417998 -3.098612,0.49194465 -3.409539,0.66474895 0.393374,4.45092776 0.540926,4.1804647 0.78705,7.1312196 0.171892,1.470054 1.254048,-0.03925 0.738069,-0.24582 1.023135,0.457262 0.629763,1.327976 1.563757,-0.0055 0.575609,0.64467 0.535754,-0.01977 0.772143,-0.407977 0.762103,0.113175 1.649247,0.14664 0.525715,-0.648929 0.71373,-0.393373 0.629762,-0.207182 0.196535,0.836336 0.540926,0.295106 1.057514,0.713122 0.66414,-0.02464 0.405543,-0.149683 0.05628,-0.840291 0.482209,-0.442659 0.03042,-1.457884 0.31123,-1.250093 0.395503,-0.182844 0.401892,0.349259 0.163677,0.516283 0.522977,-0.315793 0.133558,-0.44418 -0.339828,-0.578956 0.02008,-0.703995 0.227871,-0.326137 0.655013,-1.005794 0.319445,-0.469432 0.639497,0.147553 0.688784,-0.491945 0.934299,-1.03287 0.843029,-1.240966 0.09735,-1.5378979 L 85.862298,7.2490707 85.808449,5.6345065 85.517906,4.7537522 85.624692,4.391715 86.173832,3.8593074 85.477443,1.106912 84.592125,-4.7830375 Z"
           fill="#d3d3d3"
           stroke="#ffffff"
           stroke-width="0.228175"
           id="path1043"
           style="fill:#aaaaaa;fill-opacity:1;stroke:#aaaaaa;stroke-opacity:1" />
        <path
           d="m 49.378076,27.658841 0.01978,-0.869193 0.147553,-1.377263 0.688479,-0.885318 0.540926,-1.180424 0.78705,-1.278691 -0.147553,-1.770635 -0.540926,-0.836032 -0.09827,-0.983585 0.246124,-1.672065 -0.147552,-2.115027 -0.393374,-4.8689437 -0.393373,-4.6724093 -0.29541,-3.56561 0.934299,0.2704631 0.442355,0.295106 0.344392,-0.098267 0.639497,-0.5902119 0.860979,-0.4919446 1.549459,-0.0492857 6.688561,-0.68847912 1.696403,-0.16215615 0.457262,4.85464487 1.293598,11.2082455 0.181931,1.755728 -0.11287,0.688479 0.373598,0.546098 0.02951,0.417712 -0.766972,0.486772 -1.07668,0.471866 -0.974154,0.167328 -0.182235,1.480702 -1.391562,1.007923 -0.850939,1.219974 0.09827,0.722858 -0.176759,0.466693 h -1.011879 l -0.482513,-0.49164 -0.758453,0.383942 -0.816561,0.457262 0.04928,0.929431 -0.36295,0.07849 -0.142685,-0.310013 -0.658968,-0.457262 -0.989062,0.408281 -0.471865,0.914524 -0.437487,-0.246125 -0.442354,-0.486772 -1.3584,0.147553 -1.701575,0.295106 -0.882276,0.474603 z"
           fill="#d3d3d3"
           stroke="#ffffff"
           stroke-width="0.228175"
           id="path1045"
           style="fill:#aaaaaa;fill-opacity:1;stroke:#aaaaaa;stroke-opacity:1" />
        <path
           d="m 49.368949,27.771407 0.0094,-0.982368 0.1725,-1.413466 0.709775,-0.887143 0.567699,-1.240054 0.679352,-1.21541 -0.11287,-1.597832 -0.610292,-1.077897 -0.02921,-1.018268 0.211138,-1.603003 -0.250993,-2.184088 -0.324312,-4.799883 -0.393373,-4.5686659 -0.280807,-3.5412713 -0.08275,-0.2801986 -0.246125,-0.78705055 -0.393373,-1.13113803 -0.49164,-0.54092612 -0.442659,-0.7870506 -0.07089,-1.6699346 -13.932955,0.7903972 0.06967,0.7216405 0.695477,0.2087038 0.278373,0.3480424 0.139034,0.55644208 1.182554,1.04321472 0.208703,0.69578071 -0.208703,1.04321469 -0.556442,1.1128841 -0.208704,0.7651458 -0.695477,0.556442 -0.556442,0.2087038 -1.599961,0.4174076 -0.208703,0.556442 -0.208704,0.6261114 0.208704,0.4174076 0.556442,0.4867727 -0.06967,1.2519185 -0.556442,0.4870769 -0.209008,0.4867727 v 0.8348155 l -0.556442,0.139034 -0.486773,0.348043 -0.06967,0.417407 0.06967,0.626112 -0.521759,0.399762 -0.313056,0.852156 0.139339,1.112884 0.695476,2.225768 2.225464,2.295133 1.669326,1.112884 -0.06967,1.321588 0.278069,0.417408 1.947395,0.139339 0.834815,0.417407 -0.209008,1.112884 -0.695476,1.808361 -0.208704,0.973849 0.695476,1.18225 1.947395,1.599961 1.390953,0.209008 0.626112,1.529987 0.626111,0.97385 -0.278069,0.90418 0.487077,1.251918 0.556138,0.626112 0.430185,-0.26803 0.276244,-0.630979 0.673267,-0.531799 0.648625,-0.186799 0.791918,0.358995 1.103453,0.418625 0.361429,-0.09097 0.06085,-0.686958 -0.391548,-0.73381 0.09249,-0.723162 0.559485,-0.410106 0.919392,-0.246428 0.383637,-0.139339 -0.18619,-0.422275 -0.240953,-0.716164 0.435966,-0.298149 0.358995,-0.973545 z"
           fill="#d3d3d3"
           stroke="#ffffff"
           stroke-width="0.228175"
           id="path1047"
           style="fill:#aaaaaa;fill-opacity:1;stroke:#aaaaaa;stroke-opacity:1" />
        <path
           d="m 126.80536,-9.1868091 -1.11897,-4.5266819 -1.43568,0.279894 -6.45856,1.442977 0.30424,0.981456 0.44265,2.2132942 0.0538,2.7280567 -0.37116,0.6617066 0.58443,0.5880822 1.29938,-1.1883338 1.08185,-0.9835851 0.59021,-0.6394976 0.24613,0.1965345 0.83603,-0.4426589 1.5738,-0.3443917 2.36997,-0.9644184 z"
           fill="#d3d3d3"
           stroke="#ffffff"
           stroke-width="0.228175"
           id="path1049"
           style="fill:#aaaaaa;fill-opacity:1;stroke:#aaaaaa;stroke-opacity:1" />
        <path
           d="m 48.009028,-3.5554576 -0.02038,-0.9604634 -0.358691,-1.3772624 -0.196534,-1.8689029 -0.344392,-0.7377649 0.295106,-0.9346035 0.246124,-0.8853183 0.442659,-0.786746 -0.196839,-1.032871 -0.196534,-1.082156 0.147553,-0.540926 0.589908,-0.737765 0.04928,-0.836032 -0.246124,-0.393374 0.196534,-0.786746 -0.137513,-1.268955 0.836032,-1.72135 0.885318,-2.065742 0.04898,-0.688479 -0.09827,-0.295106 -0.24582,0.147553 -1.278691,1.918189 -0.836336,1.229709 -0.589908,0.540926 -0.246124,0.688479 -0.594776,0.245821 -0.344087,0.590211 -0.442659,-0.09827 -0.04929,-0.540926 0.393678,-0.737765 0.639497,-1.426244 0.540622,-0.491944 0.301495,-0.717382 -0.779141,-0.578346 -0.60086,-3.153983 -1.079418,-0.408281 -0.592037,-0.702169 -3.690042,-0.828122 -0.874973,-0.307884 -2.49897,-0.659273 -2.408612,-0.352606 -1.145741,-1.560715 -0.228175,0.168545 -0.364471,-0.04929 -0.196534,-0.344087 -0.405847,0.09005 -0.344392,0.04929 -0.540926,0.295106 -0.295106,-0.196839 0.196535,-0.590212 0.589907,-0.934299 0.344392,-0.344392 -0.589908,-0.442659 -0.639497,0.24582 -0.885318,0.590212 -2.26258,0.983585 -0.885318,0.196535 -0.885014,-0.147553 -0.298757,-0.267117 -0.643756,0.862501 -0.06967,0.834815 v 2.573506 l -0.348042,0.487077 -1.599657,1.182249 -0.695476,1.808361 0.139034,0.06967 0.765146,0.626111 0.208704,0.97385 -0.556442,0.97385 v 1.182553 l 0.139338,2.017064 0.904181,0.904181 h 1.043518 l 0.556443,0.973849 1.043214,0.139339 1.182554,1.738691 2.156403,1.251919 0.625807,0.834815 0.278373,2.2604505 0.208704,1.0085322 0.695476,0.4870769 0.06967,0.4174076 -0.626112,1.0432147 0.06967,0.9738496 0.765146,1.1825534 0.765146,0.3477382 0.90418,0.1393387 0.408585,0.4198414 13.781752,-0.8031749 z"
           fill="#d3d3d3"
           stroke="#ffffff"
           stroke-width="0.228175"
           id="path1051"
           style="fill:#aaaaaa;fill-opacity:1;stroke:#aaaaaa;stroke-opacity:1" />
        <path
           d="m 114.91289,25.939925 0.63433,1.495913 1.08215,1.967475 0.73777,0.737764 0.19653,0.688784 -0.73776,0.04898 0.24612,0.196535 -0.0983,1.278691 -0.78705,0.393677 -0.19654,0.639498 -0.39337,0.885013 -1.13144,0.491945 -0.73777,-0.09827 -0.44266,-0.04898 -0.49164,-0.393677 0.0983,0.393677 v 0.294802 h 0.58991 l 0.24612,0.393677 -0.58991,1.918189 h 1.27869 l 0.19654,0.491641 0.68848,-0.68848 0.39367,-0.147553 -0.59021,1.082157 -0.9343,1.47553 h -0.39337 l -0.34439,-0.147249 -0.83603,0.196534 -1.5741,0.737765 -1.96717,1.623083 -1.03318,1.426244 -0.58991,1.967474 -0.14755,0.737765 -1.42624,0.147553 -1.64895,0.395503 -3.0259,-2.495319 -3.836375,-2.311561 -0.885013,-0.246125 -3.836073,0.442659 -1.301205,0.228175 -0.49164,-0.983585 -0.903876,-0.643757 -5.016497,0.147553 -2.21299,0.24582 -2.754221,1.376958 -1.869207,0.787051 -6.443045,0.78705 0.152116,-1.233664 0.540927,-0.442659 0.836336,-0.196534 0.196534,-1.131443 1.278691,-0.836032 1.180424,-0.442659 1.278691,-1.082156 1.327673,-0.639498 0.196534,-0.934299 1.180728,-1.180424 0.196535,-0.04929 c 0,0 0,0.344696 0.24582,0.344696 0.246124,0 0.590212,0.09796 0.590212,0.09796 l 0.688479,-1.082156 0.639497,-0.196535 0.688784,0.09857 0.49164,-1.082157 0.885318,-0.78705 0.147553,-0.639498 0.0572,-1.109842 1.3009,-0.0067 2.189868,-0.260119 4.794103,-0.685133 4.60487,-0.635238 6.583899,-1.435675 6.07949,-1.295424 3.40041,-0.731984 1.53029,-0.337699 z m 1.29908,10.100533 0.78705,-0.762103 0.95894,-0.787051 0.467,-0.196534 0.0493,-0.614855 -0.19653,-1.868903 -0.44266,-0.713122 -0.19654,-0.565569 0.22149,-0.07362 0.83603,1.672064 0.12291,1.352315 -0.0493,1.033175 -1.03287,0.467302 -0.86067,0.737461 -0.34439,0.369034 -0.31945,-0.05172 z"
           fill="#d3d3d3"
           stroke="#ffffff"
           stroke-width="0.228175"
           id="path1053"
           style="fill:#aaaaaa;fill-opacity:1;stroke:#aaaaaa;stroke-opacity:1" />
        <path
           d="m 106.04146,12.711877 -0.56527,-0.554921 -0.37481,-0.208703 0.43901,-0.615159 0.87893,0.592645 -0.37725,0.784921 z"
           fill="#d3d3d3"
           stroke="#ffffff"
           stroke-width="0.228175"
           id="path1055"
           style="fill:#aaaaaa;fill-opacity:1;stroke:#aaaaaa;stroke-opacity:1" />
        <path
           d="m 134.57851,-10.893556 0.66079,-0.208704 0.13934,-0.521455 0.31275,0.03468 0.31306,0.695476 -0.38273,0.139035 -1.18255,0.03499 0.13995,-0.173412 z m -2.85066,0.243386 0.69547,-0.799828 h 0.48708 l 0.55644,0.45209 -0.73016,0.313056 -0.6611,0.313056 -0.34986,-0.279895 z m -10.58731,-6.687039 5.36849,-1.411945 0.68879,-0.196535 0.5823,-0.850635 1.13661,-0.506244 0.87924,1.34258 -0.73777,1.573797 -0.0986,0.442659 0.59021,0.787051 0.34439,-0.246125 h 0.54093 l 0.68848,0.787051 1.18042,1.819617 1.08216,0.147553 0.68878,-0.295106 0.54093,-0.540926 -0.24613,-0.836032 -0.63949,-0.491945 -0.44266,0.24582 -0.29511,-0.393373 0.14725,-0.147553 0.6395,-0.04929 0.54092,0.245821 0.59022,0.737764 0.2951,0.885318 0.0983,0.737765 -1.27869,0.442659 -1.18042,0.590212 -1.18043,1.376958 -0.58991,0.442659 v -0.295106 l 0.73777,-0.442659 0.14725,-0.540926 -0.24582,-0.934603 -0.88532,0.442658 -0.24613,0.442659 0.14756,0.688784 -0.62855,0.304233 -0.83573,-1.377263 -1.03317,-1.327977 -0.62976,-0.551574 -1.98756,0.570741 -1.54915,0.319749 -6.29032,1.397038 -0.20292,-1.450583 0.19653,-3.221218 1.30486,-0.270463 2.07182,-0.398546 z"
           fill="#d3d3d3"
           stroke="#ffffff"
           stroke-width="0.228175"
           id="path1057"
           style="fill:#aaaaaa;fill-opacity:1;stroke:#aaaaaa;stroke-opacity:1" />
        <path
           d="m 72.837478,33.220219 -15.78756,1.524815 -4.794711,0.540927 -1.40586,0.156071 -1.176773,-0.0082 -0.06754,1.247659 -2.490451,0.08032 -2.114723,0.196838 -2.461548,-0.03803 -0.429881,2.15184 -0.516284,1.666892 -1.001839,0.837249 -0.41041,1.332844 -0.09827,0.786747 -1.229405,0.688783 0.442658,1.082157 -0.29541,1.327976 -0.294497,0.24004 32.905833,-3.166456 0.122606,-1.202937 0.550966,-0.453612 0.862196,-0.22787 0.204445,-1.130834 1.247051,-0.82295 1.23123,-0.45422 1.242488,-1.086415 1.349881,-0.616072 0.158505,-0.933083 1.236403,-1.212064 0.167632,-0.03499 c 0,0 0.0094,0.344696 0.255556,0.344696 0.246125,0 0.590212,0.107698 0.590212,0.107698 l 0.688479,-1.091588 0.629762,-0.196534 0.69213,0.09005 0.486469,-1.074855 0.899008,-0.804392 0.128386,-0.589908 0.09401,-1.129008 -0.652884,-0.06054 -0.791614,0.61668 -2.127501,0.0088 -5.585412,0.726204 -2.45516,0.578043 z"
           fill="#d3d3d3"
           stroke="#ffffff"
           stroke-width="0.228175"
           id="path1059"
           style="fill:#aaaaaa;fill-opacity:1;stroke:#aaaaaa;stroke-opacity:1" />
        <path
           d="m 41.544078,40.765196 -1.210847,0.218135 -1.555238,-0.192884 0.128082,-0.487685 0.90631,-0.780662 0.286891,-1.112276 -0.556137,-0.904484 -23.857338,0.76545 0.487077,2.086429 v 2.503837 l 0.417103,3.338652 0.06967,11.511262 0.695477,0.591124 0.90418,-0.417103 0.834511,0.347738 0.207183,1.999723 16.921739,-0.347129 0.348651,-0.635847 -0.08701,-1.080027 -0.55553,-0.90418 0.486469,-0.451786 -0.486469,-0.764233 0.2084,-0.763625 0.416191,-1.705226 0.766362,-0.627632 -0.209008,-0.694868 1.112884,-1.634339 0.834815,-0.416191 -0.03468,-0.454524 -0.10496,-0.555529 0.868889,-1.703096 0.731072,-0.382421 0.116825,-1.042911 0.538796,-0.377553 -0.956508,-0.147248 -0.407976,-1.220279 0.853069,-0.723161 0.167632,-0.614247 0.389114,-1.23123 0.328572,-0.9918 z"
           fill="#d3d3d3"
           stroke="#ffffff"
           stroke-width="0.228175"
           id="path1061"
           style="fill:#aaaaaa;fill-opacity:1;stroke:#aaaaaa;stroke-opacity:1" />
        <path
           d="m 30.780317,11.881321 -0.766971,-0.939167 -0.347738,-0.695476 -19.579519,0.730159 -0.6954762,0.03468 0.382725,0.765146 -0.069669,0.695477 0.7654502,1.182553 0.938862,1.251919 0.939167,0.83451 0.657448,0.06967 0.455132,0.278373 v 0.90418 l -0.556138,0.487077 -0.139338,0.695477 0.626111,1.043214 0.765146,0.904181 0.76545,0.556442 0.417103,3.547356 0.09553,10.974594 0.06967,1.425636 0.139034,1.638294 6.825162,-0.26377 7.060029,-0.208704 6.329566,-0.243995 3.545531,-0.06967 0.660185,1.042302 -0.208399,1.006098 -0.939167,0.731072 -0.174021,0.558876 1.636164,0.139339 1.185292,-0.209008 0.522368,-1.671152 0.198055,-1.781588 0.638281,-0.777619 0.790093,-0.452395 0.01552,-0.92791 0.309405,-0.589299 -0.515371,-0.773665 -0.404934,0.299061 -0.606336,-0.677831 -0.390635,-1.44754 0.24369,-0.766667 -0.591429,-1.042606 -0.556746,-1.39217 -1.460318,-0.243386 -2.120199,-1.703096 -0.522977,-1.251615 0.243083,-0.973849 0.626719,-1.843043 0.139643,-0.871019 -0.59295,-0.313969 -2.085516,-0.242473 -0.312448,-0.520847 -0.03407,-1.286905 -1.669326,-1.043823 -2.122329,-2.364195 -0.695476,-2.225768 -0.06967,-1.285688 0.23426,-0.690609 z"
           fill="#d3d3d3"
           stroke="#ffffff"
           stroke-width="0.228175"
           id="path1063"
           style="fill:#aaaaaa;fill-opacity:1;stroke:#aaaaaa;stroke-opacity:1" />
        <path
           d="m 65.417237,44.568107 v 0.664141 l 0.04928,0.639497 0.196535,1.032871 1.032871,2.410133 0.737764,3.000041 0.442659,1.868903 0.491945,1.47553 0.442659,2.115027 0.639497,1.918189 0.786747,1.032871 0.147553,1.032871 0.589907,0.246124 0.04929,0.639498 -0.540926,1.475529 -0.147553,0.983585 -0.04898,0.590212 0.49164,1.327673 0.09827,1.623082 -0.24582,0.737765 0.196534,0.246125 0.442659,0.246124 0.06206,0.979022 0.679352,1.01918 0.684524,0.657752 2.410133,0.04898 3.291496,-0.196534 6.544963,-0.393374 1.656549,-0.205357 1.392474,0.0085 0.04929,0.885013 0.78705,0.246125 0.09827,-1.327673 -0.491944,-1.377262 0.344392,-0.491641 1.770635,0.246125 1.514167,0.09644 -0.23578,-1.916364 0.688783,-3.049022 0.442659,-1.278691 -0.147553,-0.787051 1.014617,-1.89963 -0.155463,-0.411323 -0.581998,0.21418 -0.78705,-0.393373 -0.196535,-0.639498 -0.393373,-1.082156 -0.688783,-0.639498 -0.787051,-0.196534 -0.49164,-1.475834 -0.889881,-1.927012 -1.278691,-0.590212 -0.639498,-0.590211 -0.393678,-0.786747 -0.639497,-0.589907 -0.688479,-0.393678 -0.688784,-0.885013 -0.934299,-0.688784 -1.376958,-0.540926 -0.147553,-0.442659 -0.737765,-0.885318 -0.147553,-0.442354 -1.032871,-1.512342 -1.0709,0.03012 -1.142394,-0.716773 -0.431707,-0.393373 -0.09827,-0.540926 0.264987,-0.590212 0.677527,-0.337395 -0.192884,-0.63828 -12.753445,1.521164 z"
           fill="#d3d3d3"
           stroke="#ffffff"
           stroke-width="0.228175"
           id="path1065"
           style="fill:#aaaaaa;fill-opacity:1;stroke:#aaaaaa;stroke-opacity:1" />
        <path
           d="m 93.604417,60.573802 -0.540621,0.295106 -0.786747,-0.393678 -0.196839,-0.639497 -0.393373,-1.082157 -0.688479,-0.639498 -0.78705,-0.196534 -0.491945,-1.47553 -0.836032,-1.819617 -1.278691,-0.589908 -0.639498,-0.590211 -0.393373,-0.787051 -0.639498,-0.589908 -0.688783,-0.393373 -0.688479,-0.885318 -0.934604,-0.688783 -1.376958,-0.540622 -0.147249,-0.442659 -0.737764,-0.885318 -0.147553,-0.442659 -1.032871,-1.574101 -1.033175,0.04929 -1.229405,-0.737765 -0.393678,-0.393677 -0.09827,-0.540622 0.246124,-0.590212 0.688784,-0.295106 -0.155768,-0.696389 1.75512,-0.710688 2.773083,-1.396429 2.365411,-0.246125 4.90241,-0.128386 0.802566,0.571045 0.511112,1.021614 1.30881,-0.185582 3.836073,-0.442659 0.885317,0.246125 3.836076,2.311561 3.07519,2.471285 -1.64925,1.660199 -0.78705,1.869207 -0.14725,1.918493 -0.49194,0.24582 -0.3444,0.836032 -0.73776,0.196839 -0.639501,1.081852 -0.836032,0.836336 -0.688479,1.032871 -0.491945,0.246124 -1.082156,1.032871 -0.885318,0.04898 0.29541,0.983585 -1.524815,1.672368 -0.644974,0.386376 z"
           fill="#d3d3d3"
           stroke="#ffffff"
           stroke-width="0.228175"
           id="path1067"
           style="fill:#aaaaaa;fill-opacity:1;stroke:#aaaaaa;stroke-opacity:1" />
        <path
           d="m 81.754545,26.228946 -0.697606,0.730464 -1.088546,1.215106 -1.498347,1.662633 -0.369947,0.522063 -0.01917,0.639498 -1.33254,0.65836 -1.72135,1.033175 -2.199908,0.547315 -15.779954,1.490133 -4.794711,0.540926 -1.40586,0.156072 -1.176773,-0.0082 -0.06906,1.283863 -2.488625,0.04411 -2.114724,0.196839 -2.430212,-0.01856 0.367513,-0.401588 0.760583,-0.468823 0.06967,-0.973849 0.278069,-0.556138 -0.488598,-0.772447 0.243995,-0.579868 0.688783,-0.541231 0.639497,-0.196534 0.836033,0.393373 1.082156,0.393677 0.344392,-0.09827 0.04898,-0.688783 -0.393373,-0.737765 0.09827,-0.688479 0.589908,-0.442659 0.787051,-0.196535 0.49164,-0.196534 -0.24582,-0.541231 -0.196839,-0.589907 0.458479,-0.303016 c 0.0012,-0.01126 0.381508,-1.071204 0.37664,-1.112884 l 0.929128,-0.449961 1.618215,-0.295106 1.367223,-0.147553 0.423796,0.494987 0.464868,0.264987 0.484035,-0.945556 0.96959,-0.390331 0.670834,0.451482 0.125039,0.303929 0.35717,-0.08032 -0.04929,-0.8984 0.952553,-0.532103 0.653493,-0.326746 0.465172,0.505331 1.00914,-0.01339 0.178889,-0.47795 -0.111653,-0.68848 0.79131,-1.216627 1.453016,-1.045953 0.214789,-1.470966 0.889881,-0.13873 1.153347,-0.500768 0.743241,-0.51963 -0.06024,-0.476124 -0.347738,-0.442659 0.172196,-0.911178 1.273214,-0.0359 0.699736,-0.226958 1.018572,0.434749 0.624894,1.327977 1.561628,0.0033 0.623982,0.671747 0.491336,-0.04472 0.791614,-0.388809 1.593268,0.174325 0.7834,0.06632 0.513545,-0.625503 0.796482,-0.433836 0.572566,-0.215093 0.196534,0.862805 0.621548,0.322182 0.804088,0.633718 0.0359,1.725913 0.245821,0.478254 0.787963,0.473387 0.234564,0.69791 1.265609,1.045649 0.549444,1.10254 0.745371,0.52328 z"
           fill="#0000ff"
           stroke="#ffffff"
           stroke-width="0.228175"
           id="path1069"
           style="fill:#aaaaaa;fill-opacity:1;stroke:#aaaaaa;stroke-opacity:1" />
        <path
           d="m 52.949771,76.473015 -0.453611,-4.357224 -0.836032,-5.704976 0.04928,-4.278732 0.245821,-9.443086 -0.04898,-5.065478 0.0502,-1.953176 13.533497,-1.101019 -0.04472,0.663836 0.04898,0.639498 0.196535,1.033175 1.033175,2.409829 0.737765,3.000041 0.442659,1.869207 0.49164,1.47553 0.442659,2.115027 0.639498,1.918189 0.78705,1.032871 0.147249,1.03287 0.590212,0.246125 0.04898,0.639497 -0.540926,1.47553 -0.147249,0.983585 -0.04928,0.590212 0.491944,1.327673 0.09827,1.623082 -0.246125,0.737765 0.196535,0.246125 0.442659,0.24582 0.09979,0.879233 -1.703096,-0.107698 -2.065742,0.196534 -7.770717,0.885014 -3.167369,0.428055 -0.06754,0.875278 0.540926,0.540927 0.786747,0.590212 0.176759,2.414392 -1.686059,0.782487 -0.836032,-0.09827 0.836032,-0.589908 v -0.295106 l -0.934299,-1.819617 -0.688784,-0.196839 -0.442658,1.327977 -0.393374,0.836032 -0.196534,-0.04898 h -0.842725 z"
           fill="#d3d3d3"
           stroke="#ffffff"
           stroke-width="0.228175"
           id="path1071"
           style="fill:#aaaaaa;fill-opacity:1;stroke:#aaaaaa;stroke-opacity:1" />
        <path
           d="m 45.848974,76.089681 -0.9991,-0.963201 0.307275,-1.673281 -0.201098,-0.271985 -2.817806,0.306363 -7.614341,0.139643 -0.2084,-0.728638 0.277765,-2.572594 1.008532,-1.808664 1.530596,-2.644089 -0.174326,-0.72955 0.382117,-0.207183 0.139643,-0.593863 -0.695477,-0.625503 -0.03377,-0.59082 -0.55705,-1.322196 -0.04442,-1.928533 -16.877322,0.281111 0.0088,2.912422 0.208704,2.85188 0.208703,1.182553 0.765451,1.251919 0.278068,1.529987 1.321588,1.669326 0.06967,0.973545 0.209008,0.209008 -0.209008,2.573507 -0.904181,1.529987 0.486773,0.626112 -0.208704,0.765145 -0.208704,2.225769 -0.417407,0.973545 0.03742,1.10041 1.425939,-0.462738 3.685174,0.06298 3.147594,1.082157 1.967474,0.344392 1.131138,-0.442659 0.983585,0.344391 0.983585,0.295106 0.246125,-0.639497 -0.983585,-0.344392 -0.787051,0.147553 -0.836032,-0.491945 c 0,0 0.04898,-0.393373 0.246124,-0.442659 0.196535,-0.04898 0.9343,-0.295106 0.9343,-0.295106 l 0.540926,0.442659 0.540926,-0.295106 0.983585,0.196535 0.442355,0.737765 0.09857,0.688783 1.376958,0.09827 0.540927,0.540926 -0.243387,0.489816 -0.393373,0.246124 0.49164,0.49164 2.557382,1.082157 1.082157,-0.393373 0.295106,-0.737765 0.787051,-0.196839 0.540926,-0.442355 0.393373,0.295106 0.246124,0.885318 -0.688783,0.24582 0.196534,0.196535 1.033175,-0.393373 0.68848,-1.032871 0.246124,-0.147553 -0.639498,-0.09827 0.246125,-0.491641 -0.04929,-0.442659 0.639498,-0.147553 0.344391,-0.393373 0.196535,0.24582 c 0,0 -0.04898,0.934604 0.196534,0.934604 0.246125,0 1.278691,0.196535 1.278691,0.196535 l 1.22971,0.589907 0.295106,0.442659 h 0.885318 l 0.344391,0.29541 0.688479,-0.934603 v -0.442659 h -0.393373 l -1.033175,-0.836032 -1.770331,-0.246125 -0.983585,-0.688479 0.344391,-0.836032 0.688784,0.09827 0.04898,-0.196534 -0.540926,-0.29541 v -0.147249 h 0.983585 l 0.540926,-0.934299 -0.393373,-0.590212 -0.09827,-0.836032 -0.442659,0.04898 -0.590212,0.639498 -0.196534,0.78705 -0.9343,-0.196534 -0.29541,-0.540926 0.540926,-0.590212 0.578956,-1.048083 -0.322792,-0.733809 -0.358994,-1.219975 z"
           fill="#00007f"
           stroke="#ffffff"
           stroke-width="0.228175"
           id="path1073"
           style="fill:#aaaaaa;fill-opacity:1;stroke:#aaaaaa;stroke-opacity:1" />
        <path
           d="m 53.025829,76.144443 -0.07728,0.382117 h -1.573797 l -0.442659,-0.246125 -0.639497,-0.09827 -2.065742,0.590212 -0.540926,-0.246125 -0.787051,1.278691 -0.335569,0.236694 -0.341653,-0.756932 -0.348043,-1.182553 -1.043519,-0.973546 0.348043,-1.686971 -0.208704,-0.278069 -0.556442,0.06967 -2.408916,0.265596 -7.468006,0.113783 -0.234259,-0.677223 0.265595,-2.548559 0.948294,-1.725914 1.590226,-2.78221 -0.135384,-0.740198 0.376336,-0.199577 0.132646,-0.584127 -0.704908,-0.632501 -0.03499,-0.651667 -0.558572,-1.253744 -0.03316,-1.814141 0.404021,-0.754497 -0.06815,-1.03926 -0.538492,-0.937646 0.464259,-0.450873 -0.477645,-0.760278 0.139034,-0.502593 0.48008,-1.985728 0.756018,-0.619418 -0.195317,-0.719816 1.112884,-1.613347 0.861588,-0.412844 -0.06754,-0.509286 -0.08762,-0.51172 0.874974,-1.693969 0.71373,-0.374206 0.04624,-0.271984 11.36097,-1.181032 0.05659,1.911799 0.04898,5.065783 -0.24582,9.442781 -0.04929,4.278732 0.836032,5.705281 0.447222,4.076721 z"
           fill="#00007f"
           stroke="#ffffff"
           stroke-width="0.228175"
           id="path1075"
           style="fill:#aaaaaa;fill-opacity:1;stroke:#aaaaaa;stroke-opacity:1" />
        <path
           d="m 34.050821,-2.8831028 0.08062,0.8475929 0.676614,0.1755424 0.290238,0.3726854 0.152117,0.56435204 1.153955,1.02191841 0.208704,0.72742093 -0.205357,1.04199782 -0.481297,0.9832808 -0.243082,0.8342067 -0.661098,0.4873811 -0.522064,0.1740213 -1.697315,0.5658732 -0.423492,1.1709926 0.221786,0.4174076 0.560092,0.512024 -0.0861,1.2281883 -0.536362,0.4679103 -0.234564,0.5001589 0.03864,0.8445511 -0.573784,0.139338 -0.494682,0.336178 -0.08458,0.411627 0.08458,0.643452 -0.471866,0.339524 L 30.050767,10.971361 29.666521,10.22599 9.667769,10.991136 9.3884832,11.041638 8.763893,9.6677225 8.6942236,7.6506581 8.2071467,6.3987396 7.9984429,4.7990829 7.3029665,3.6861988 7.0245933,2.2255765 6.1900824,-0.06955669 5.8423442,-1.7042002 5.4249366,-2.3649942 4.9378597,-3.1995051 5.5323308,-4.6732094 5.9497384,-6.4122048 5.1149232,-7.0383162 4.9758888,-7.8731313 5.2542619,-8.6382772 h 0.5214552 l 25.1460689,-0.3863758 0.25373,1.2726064 0.685437,0.4749076 0.07788,0.4329234 -0.617288,1.0310454 0.0578,0.9753708 0.765146,1.1554767 0.768797,0.3936774 0.936733,0.1530291 0.200793,0.249471 z"
           fill="#d3d3d3"
           stroke="#ffffff"
           stroke-width="0.228175"
           id="path1077"
           style="fill:#aaaaaa;fill-opacity:1;stroke:#aaaaaa;stroke-opacity:1" />
        <path
           d="M 5.4681377,-24.410625 5.328799,-26.984131 4.7723569,-29.209899 4.2162191,-33.313697 4.0768805,-36.304611 3.5204384,-37.347826 3.0336657,-38.878118 v -3.126906 l 0.2087038,-1.182553 -0.5540081,-1.658678 9.1674506,0.01065 0.09827,-2.5084 0.196535,-0.04929 0.688783,0.147553 0.589908,0.24582 0.246124,1.672368 0.442659,1.868903 0.491641,0.491945 h 1.475529 l 0.09827,0.442659 1.918493,0.09827 v 0.639498 h 1.475529 l 0.09827,-0.393373 0.344392,-0.344392 0.688479,-0.196535 0.393678,0.295106 h 0.885013 l 1.180424,0.787051 1.623083,0.737765 0.737765,0.147553 0.147553,-0.295106 0.442658,-0.147553 0.147249,0.885318 0.787051,0.393373 0.147553,-0.147553 0.393373,0.04929 v 0.639497 l 0.786746,0.295106 h 0.934604 l 0.49164,-0.24582 0.983585,-0.983585 0.787051,-0.147553 0.24582,0.540926 0.147553,0.393373 h 0.295106 l 0.295106,-0.24582 2.705239,-0.09827 0.540926,0.934299 h 0.196535 l 0.217222,-0.329788 1.35049,-0.112871 -0.185886,0.693651 -1.198374,0.558876 -2.812633,1.23549 -1.452712,0.610596 -0.9343,0.78705 -0.737765,1.082157 -0.688479,1.180423 -0.54123,0.245821 -1.376958,1.524511 -0.393373,0.04929 -1.316721,0.83877 -0.749325,0.975066 -0.06967,0.970808 0.0289,2.446945 -0.418624,0.513545 -1.546112,1.143916 -0.678135,1.819922 0.873453,0.679352 0.207182,0.981759 -0.564352,0.985411 0.05202,1.140265 0.112262,2.047487 0.920913,0.913308 h 1.012792 l 0.575608,0.953161 1.028003,0.15303 1.174035,1.725305 2.156099,1.252527 0.652275,0.874669 0.204141,1.958956 -24.7070608,0.3483467 -0.1031349,-10.8541187 -0.1390345,-0.90418 -1.2519185,-1.043215 -0.3477382,-0.556442 v -0.487076 l 0.6261113,-0.486773 0.4171034,-0.417408 0.076058,-0.973545 z"
           fill="#d3d3d3"
           stroke="#ffffff"
           stroke-width="0.228175"
           id="path1079"
           style="fill:#aaaaaa;fill-opacity:1;stroke:#aaaaaa;stroke-opacity:1" />
        <path
           d="m -23.403567,34.002098 -5.075823,-0.386985 -0.268029,3.331655 6.226431,0.351998 9.752491,0.396719 -0.710384,7.429064 -0.139034,5.425386 0.06967,0.486773 1.321588,1.112884 0.626111,0.347738 0.209008,-0.06967 0.208704,-0.625807 0.417104,0.556137 h 0.626415 v -0.417103 l 0.834511,0.417103 -0.1390344,1.182554 1.2519185,0.06967 0.7651458,0.348043 1.2519185,0.208703 0.7651458,0.556442 0.6954765,-0.626111 1.043519,0.209008 0.7651458,1.043215 h 0.2780689 v 0.695476 l 0.6954765,0.208704 0.6957807,-0.695476 0.55613777,0.209008 h 0.76545005 l 0.2780689,0.765145 1.91697168,0.632501 0.4174076,-0.209008 0.556442,-1.251615 h 0.3477383 l 0.3480424,0.625808 1.2519185,0.208703 1.1128841,0.417408 0.9041803,0.278373 0.556442,-0.278373 0.2087038,-0.765146 h 1.3215878 l 0.6261114,0.278069 0.8348148,-0.625807 h 0.347739 l 0.209008,0.486773 h 1.251918 l 0.486773,-0.625808 0.556442,0.139035 0.626111,0.765146 0.97385,0.556442 0.973545,0.278069 0.590516,0.340436 -0.118346,-11.322637 -0.417408,-3.338956 -0.04898,-2.699155 -0.437792,-1.989075 -0.236693,-2.184392 -0.02069,-1.160953 -3.692475,0.09705 -14.11945,-0.139034 -13.702043,-0.626111 -7.401987,-0.410715 z"
           fill="#d3d3d3"
           stroke="#ffffff"
           stroke-width="0.228175"
           id="path1081"
           style="fill:#aaaaaa;fill-opacity:1;stroke:#aaaaaa;stroke-opacity:1" />
        <path
           d="m -29.147485,36.968369 6.903349,0.330397 9.459515,0.347738 -0.710384,7.135783 -0.09036,5.523045 0.02069,0.633413 1.321587,1.161561 0.604207,0.440225 0.360516,-0.170674 0.113479,-0.552792 0.34713,0.548836 0.642235,0.01339 -6.08e-4,-0.440225 0.5080689,0.294497 0.3465213,0.124127 -0.1092196,1.207196 1.2437042,0.0286 0.8901856,0.364167 1.202937,0.159722 0.7246828,0.632501 0.6461908,-0.631588 1.1332676,0.187103 0.6757014,0.981152 0.3270504,0.09735 -0.048677,0.598122 0.6735717,0.240953 0.7088627,-0.625199 0.64892887,0.187103 0.6781352,0.01065 0.28384933,0.741112 1.925186,0.643148 0.484643,-0.233347 0.4533071,-1.271085 h 0.1037434 l 0.2756351,0.02495 0.3739022,0.629154 1.1959397,0.202315 1.0152253,0.341654 1.0419978,0.363558 0.5600928,-0.296627 0.2172223,-0.765146 1.3547492,0.01339 0.5503574,0.283241 0.8518515,-0.640714 0.335874,0.01339 0.258902,0.488294 h 1.233664 l 0.462434,-0.617289 0.568003,0.124127 0.592038,0.730768 1.071204,0.622156 0.869497,0.246429 0.460609,0.243386 0.744154,0.607553 0.925781,-0.403717 0.81869,0.346521 0.171588,1.857342 -0.01217,2.951668 0.208704,2.900557 0.213572,1.09676 0.814127,1.344709 0.272897,1.505953 1.28295,1.684842 0.05933,0.957117 0.227262,0.238823 -0.22209,2.549776 -0.873757,1.52299 0.466389,0.655014 -0.191667,0.711296 -0.203836,2.252541 -0.457871,1.015529 0.08975,1.065728 -1.723175,0.482209 -3.000041,1.376959 -0.29541,0.589907 -0.786747,0.590212 -0.639497,0.442659 -0.393678,0.24582 -1.72135,1.623083 -0.836032,0.639498 L 9.9284966,89.517306 8.207451,90.255071 6.2892623,91.288246 5.7483362,91.7306 3.9777005,92.812757 2.9448297,93.009291 1.764406,94.68166 l -1.22970954,0.09827 -0.29510594,0.589908 0.68878335,0.590211 -0.44265891,1.672065 -0.39367741,1.376958 -0.34408745,1.180418 -0.24612444,1.37696 0.24612444,0.73807 0.54092615,2.11472 0.29510594,1.86891 0.54092611,0.83633 -0.29541013,0.44236 -0.93429933,0.59021 -1.72134994,-1.18042 -1.6720642,-0.3444 -0.3933731,0.14756 -0.9835851,-0.19654 -1.278691,-0.9346 -1.5741012,-0.34409 -2.3115613,-1.03317 -0.639498,-1.18043 -0.393373,-1.96717 -0.983585,-0.59021 -0.196535,-0.688476 0.196535,-0.196839 0.09827,-1.03287 -0.393373,-0.196535 -0.196535,-0.295106 0.393373,-1.327977 -0.491944,-0.688479 -0.983281,-0.393677 -1.033175,-1.327673 -1.082157,-2.01676 -1.278691,-0.786746 0.04929,-0.590212 -1.623083,-3.737806 -0.246124,-1.278691 -0.540926,-0.589907 -0.04898,-0.442659 -1.819617,-1.623083 -0.78705,-0.934299 V 82.04139 l -0.786747,-0.639498 -2.065741,-0.344391 -2.262581,-0.196535 -0.934299,-0.688783 -1.376958,0.540926 -1.082157,0.442659 -0.688783,0.983585 -0.295106,1.131442 -1.327977,1.868903 -0.737765,0.737765 -0.786746,-0.295106 -0.540926,-0.344392 -0.590212,-0.196534 -1.180424,-0.688783 v -0.196535 l -0.540926,-0.589908 -1.573797,-0.639497 -2.26258,-2.360848 -0.688479,-1.426244 v -2.459115 l -0.983585,-1.96717 -0.147553,-0.836336 -0.491641,-0.295106 -0.344391,-0.639498 -1.524816,-0.639497 -0.393373,-0.491641 -2.164009,-2.410133 -0.393373,-0.983585 -1.426244,-0.688479 -0.442659,-1.327977 -0.786746,-0.885318 -0.590212,-0.147248 -0.197447,-1.423202 2.434167,0.208704 8.833403,0.834815 8.833404,0.486773 0.679352,-5.920982 1.182553,-16.90166 0.487077,-5.703455 0.417103,0.0085 M 1.3500497,106.83727 1.1781581,104.67326 0.34212602,102.48461 0.16993018,100.34524 0.63723196,97.837145 1.6454599,95.74676 l 1.0575137,-1.647421 0.9589421,-1.082157 0.1965345,0.07363 -1.4508868,2.016456 -1.3279768,1.992117 -0.61485471,2.016456 -0.0973545,1.566799 0.27046307,1.86921 0.78705054,2.18835 0.1472488,1.5741 0.049286,0.44235 -0.2707673,0.0791 z"
           fill="#d3d3d3"
           stroke="#ffffff"
           stroke-width="0.228175"
           id="path1083"
           style="fill:#aaaaaa;fill-opacity:1;stroke:#aaaaaa;stroke-opacity:1" />
        <path
           d="m -51.450801,65.395894 -0.235781,-1.444498 2.62979,0.159722 9.179011,0.89627 8.296128,0.51385 0.673876,-5.691286 1.173427,-16.999319 0.528756,-5.899077 0.47795,0.03925 0.250992,-3.396153 -31.640224,-3.235821 -5.323164,36.641814 4.703441,0.605119 0.393373,-3.049326 8.889687,0.860979 z"
           fill="#d3d3d3"
           stroke="#ffffff"
           stroke-width="0.228175"
           id="path1085"
           style="fill:#aaaaaa;fill-opacity:1;stroke:#aaaaaa;stroke-opacity:1" />
        <path
           d="m 15.3983,35.085167 -3.838811,0.06206 -14.0220954,-0.139338 -13.5557066,-0.625807 -7.493257,-0.382725 1.184683,-19.651927 6.718376,0.205358 12.2572402,0.25586 13.4781278,0.300582 h 1.550371 l 0.664748,0.657751 0.613943,-0.0064 0.498942,0.307884 -0.01917,0.915437 -0.556138,0.525106 -0.10131,0.679048 0.561006,1.035 0.898096,0.972025 0.70795,0.491031 0.395807,3.419883 0.06085,10.985851 z"
           fill="#d3d3d3"
           stroke="#ffffff"
           stroke-width="0.228175"
           id="path1087"
           style="fill:#aaaaaa;fill-opacity:1;stroke:#aaaaaa;stroke-opacity:1" />
        <path
           d="m 8.7721073,9.6269553 0.9826723,2.1357147 -0.038942,0.700345 1.0523424,1.671455 0.827209,0.958943 h -1.536072 l -13.2286567,-0.285371 -12.4087483,-0.270767 -6.769791,-0.238519 0.326138,-6.4886798 -9.8322,-0.8883602 1.321588,-13.3892912 4.729909,0.3130557 6.120558,0.3477382 5.425386,0.3477383 7.2334418,0.3480424 3.2692871,-0.1393387 0.6258071,0.6954765 1.4609265,0.9041803 0.3477383,0.2783731 1.32158783,-0.4174076 1.18255337,-0.1393386 0.8348152,-0.069669 0.556442,0.4174076 1.234273,0.4870769 0.9044845,0.4867727 0.1390345,0.4870769 0.2780689,0.6261114 h 0.556442 l 0.2427779,0.013995 0.2722884,1.42441859 0.8883602,2.57624441 0.1743255,1.1430032 0.7675797,1.148175 0.1731085,1.5558472 0.4889023,1.2902519 0.076058,1.9744717 z"
           fill="#d3d3d3"
           stroke="#ffffff"
           stroke-width="0.228175"
           id="path1089"
           style="fill:#aaaaaa;fill-opacity:1;stroke:#aaaaaa;stroke-opacity:1" />
        <path
           d="M 5.8362595,-1.5323086 5.8216563,-1.709068 4.9405978,-3.1833807 5.506471,-4.6169263 5.9603865,-6.4079456 5.1143148,-7.0407501 4.9968808,-7.875261 l 0.2412568,-0.7773151 0.9698945,0.00456 -0.037421,-1.5229909 -0.1016138,-9.179923 -0.1877117,-1.146351 -1.2388365,-1.0134 -0.299061,-0.510198 -0.019167,-0.489511 0.615159,-0.465172 0.4660849,-0.506851 0.074537,-0.808347 -17.723698,-0.486773 -16.671965,-1.0493 -1.62004,19.3768998 4.439063,0.2750266 6.069142,0.3669049 5.398005,0.2823281 7.233747,0.3967198 3.6453189,-0.129299 0.598122,0.6833071 1.5804901,0.9896698 0.2324339,0.2199604 1.38152175,-0.4420505 1.98998755,-0.1871032 0.5095902,0.4064552 1.2792995,0.4855557 0.8959659,0.4977251 0.1210848,0.4514817 0.3164022,0.681786 0.6845241,-0.060847 z"
           fill="#d3d3d3"
           stroke="#ffffff"
           stroke-width="0.228175"
           id="path1091"
           style="fill:#aaaaaa;fill-opacity:1;stroke:#aaaaaa;stroke-opacity:1" />
        <path
           d="m 5.489434,-24.380202 -0.1871033,-2.5659 -0.5101986,-2.073652 -0.5756087,-3.96233 -0.1390345,-3.342607 -0.5293653,-0.936124 -0.534233,-1.580186 0.00943,-3.177409 0.1895371,-1.163387 -0.5579632,-1.663545 -8.7141438,-0.171588 -5.6559937,-0.196534 -8.066128,-0.393373 -6.980929,-0.649233 -2.127501,20.437455 16.712428,1.017355 17.6668058,0.419841 z"
           fill="#d3d3d3"
           stroke="#ffffff"
           stroke-width="0.228175"
           id="path1093"
           style="fill:#aaaaaa;fill-opacity:1;stroke:#aaaaaa;stroke-opacity:1" />
        <path
           d="m -29.476057,-20.011417 -32.473823,-4.094062 -4.284512,26.9118362 34.457422,4.1330043 2.300001,-26.9489525 z"
           fill="#d3d3d3"
           stroke="#ffffff"
           stroke-width="0.228175"
           id="path1095"
           style="fill:#aaaaaa;fill-opacity:1;stroke:#aaaaaa;stroke-opacity:1" />
        <path
           d="m -26.78968,-46.270065 -9.332345,-0.854286 -8.90216,-1.081853 -8.901855,-1.229709 -9.836459,-1.623083 -5.606709,-1.032871 -9.955719,-2.109246 -1.362659,6.494764 1.043519,2.295133 -0.417407,1.390953 0.556442,1.391257 0.973849,0.417408 1.405861,3.276589 0.819907,0.966244 0.139339,0.347738 1.043215,0.348042 0.139034,0.626112 -2.156099,5.355716 v 0.765146 l 0.765146,0.97385 h 0.278373 l 1.460623,-0.904181 0.208703,-0.347738 0.487077,0.208704 -0.06967,1.599657 0.834511,3.825424 0.90418,0.765146 0.278373,0.208704 0.556442,0.695477 -0.142989,1.040476 0.208704,1.043519 0.347738,0.278069 0.695476,-0.695477 h 0.834816 l 0.973849,0.487077 0.765146,-0.278373 h 1.251918 l 1.112885,0.486773 0.83451,-0.139034 0.139339,-0.904181 0.90418,-0.208704 0.417408,0.417408 0.139034,0.97385 0.433837,0.25373 0.574087,-3.35721 32.476865,4.085544 2.671166,-26.249522 z"
           fill="#d3d3d3"
           stroke="#ffffff"
           stroke-width="0.228175"
           id="path1097"
           style="fill:#aaaaaa;fill-opacity:1;stroke:#aaaaaa;stroke-opacity:1" />
        <path
           d="M -23.49788,34.04469 -22.006226,7.7817825 -56.503197,3.9350614 -60.218794,30.689001 -23.49788,34.041648 Z"
           fill="#d3d3d3"
           stroke="#ffffff"
           stroke-width="0.228175"
           id="path1099"
           style="fill:#aaaaaa;fill-opacity:1;stroke:#aaaaaa;stroke-opacity:1" />
        <path
           d="m -93.943015,-9.9108835 2.668427,-10.7153885 0.417408,-1.286601 0.765146,-1.80836 -0.382421,-0.695477 -0.765146,0.03468 -0.243386,-0.313056 0.139034,-0.347738 0.104352,-0.938863 1.356271,-1.669326 0.556442,-0.139339 0.348042,-0.347738 0.173717,-0.973849 0.278373,-0.208704 1.182554,-1.773678 1.182249,-1.321588 0.06967,-1.147567 -1.043519,-0.799828 -0.466997,-1.338929 4.145173,-19.270722 4.112621,0.7691 -1.341059,6.505413 1.08307,2.277184 -0.480993,1.418029 0.599339,1.41225 0.954683,0.381812 1.166733,2.907554 1.068771,1.349882 0.154246,0.347738 1.016442,0.348042 0.112262,0.637977 -2.120808,5.286351 -0.0502,0.780662 0.800437,1.010357 0.27533,-0.01491 1.494088,-0.920305 0.20627,-0.333135 0.475212,0.20049 -0.08458,1.628863 0.833294,3.828163 1.191985,0.966852 0.511416,0.658969 -0.218135,1.242487 0.324312,0.853982 0.323095,0.331918 0.754194,-0.715556 0.866455,0.01491 0.888056,0.406151 0.845767,-0.207486 1.15426,-0.04868 1.210543,0.486773 0.834815,-0.09036 0.151204,-0.923956 0.892315,-0.232738 0.383334,0.461217 0.134166,0.895966 0.433228,0.369035 -2.551297,16.309623 c 0,0.00304 -26.763371,-5.0776476 -28.889959,-5.5370393 z"
           fill="#d3d3d3"
           stroke="#ffffff"
           stroke-width="0.228175"
           id="path1101"
           style="fill:#aaaaaa;fill-opacity:1;stroke:#aaaaaa;stroke-opacity:1" />
        <path
           d="m -60.167075,30.740721 -25.479203,-3.612158 6.263243,-34.2383739 14.232016,2.6605169 -0.451785,3.2339961 -0.703387,4.0076604 2.375451,0.2823281 4.991549,0.5491405 2.498057,0.2604234 -3.729896,26.8515985 z"
           fill="#d3d3d3"
           stroke="#ffffff"
           stroke-width="0.228175"
           id="path1103"
           style="fill:#aaaaaa;fill-opacity:1;stroke:#aaaaaa;stroke-opacity:1" />
        <path
           d="m -95.029126,52.806735 -0.79922,0.656535 -0.09827,0.442659 0.147553,0.29541 5.754566,3.245861 3.688824,2.311562 4.47557,2.606667 5.115069,3.049327 3.737806,0.737765 7.590915,0.82295 5.249844,-36.243269 -25.475249,-3.625848 -0.940688,4.993071 -0.488598,0.0049 -0.521455,0.799828 -0.765146,-0.03438 -0.382421,-0.834816 -0.834511,-0.104351 -0.278373,-0.348043 h -0.278373 l -0.278373,0.174021 -0.591125,0.312752 -0.03468,2.12172 -0.06967,0.52176 -0.174021,3.825425 -0.45209,0.660794 -0.174021,1.008227 0.834815,1.49561 0.382421,1.773373 0.243386,0.312752 0.313056,0.174021 -0.03468,0.695476 -0.487077,0.417408 -1.043215,0.521759 -0.591124,0.591125 -0.45209,1.11258 -0.174022,1.495305 -0.869497,0.834815 -0.626112,0.208704 0.04138,0.252513 -0.139034,0.52176 0.139034,0.243386 1.112884,0.173717 -0.174021,0.834815 -0.45209,0.660794 -1.146958,0.276852 z"
           fill="#d3d3d3"
           stroke="#ffffff"
           stroke-width="0.228175"
           id="path1105"
           style="fill:#aaaaaa;fill-opacity:1;stroke:#aaaaaa;stroke-opacity:1" />
        <path
           d="m -79.367215,-7.1423639 -7.191762,39.1912859 -0.557659,0.106482 -0.478558,0.731984 -0.721945,0.003 -0.447831,-0.83451 -0.796786,-0.115 -0.234564,-0.337091 -0.315793,-0.01643 -0.84516,0.500463 -0.09431,2.06422 -0.110132,1.757554 -0.106177,2.614274 -0.440225,0.635542 -0.74172,-0.326746 -21.016413,-31.7010712 5.77708,-20.5612788 28.321044,6.2824104 z"
           fill="#d3d3d3"
           stroke="#ffffff"
           stroke-width="0.228175"
           id="path1107"
           style="fill:#aaaaaa;fill-opacity:1;stroke:#aaaaaa;stroke-opacity:1" />
        <path
           d="m -93.869999,-10.199905 2.692462,-10.58761 0.319749,-1.286601 0.716164,-1.710702 -0.187103,-0.353823 -0.765146,-0.01399 -0.389723,-0.508069 0.139035,-0.445397 0.153029,-0.987845 1.35627,-1.669326 0.556442,-0.334656 0.347739,-0.347738 0.45209,-1.084895 1.231231,-1.724696 1.08459,-1.174948 0.06967,-1.049908 -0.994537,-0.751151 -0.542752,-1.412553 -3.852806,-1.09889 -4.59057,-1.077897 -4.694925,0.03468 -0.13934,-0.417408 -1.66932,0.626111 -1.35627,-0.174021 -0.73016,-0.486773 -0.38273,0.208704 -1.42594,-0.06967 -0.52176,-0.417408 -1.59965,-0.626111 -0.24339,0.03468 -1.32159,-0.45209 -0.59112,0.556442 -1.87803,-0.104352 -1.80836,-1.251918 0.2087,-0.243386 0.0697,-2.364803 -0.69578,-1.182553 -1.25192,-0.174022 -0.2087,-0.765145 -0.71617,-0.142077 -1.76394,0.626415 -0.68848,1.967171 -0.98206,3.049935 -0.98359,1.96717 -1.52451,4.278732 -1.96717,4.131483 -2.45911,3.836377 -0.59022,0.885318 -0.24612,2.606668 0.11743,3.675133 34.250548,8.007411 z"
           fill="#d3d3d3"
           stroke="#ffffff"
           stroke-width="0.228175"
           id="path1109"
           style="fill:#aaaaaa;fill-opacity:1;stroke:#aaaaaa;stroke-opacity:1" />
        <path
           d="m -108.06246,-61.28609 1.32797,0.442659 2.95106,0.836032 2.60667,0.590212 6.098652,1.72135 6.983972,1.72135 4.631337,0.975675 -4.147303,19.344955 -3.786179,-1.072421 -4.718044,-1.086416 -4.633165,0.01004 -0.13873,-0.409194 -1.7034,0.662924 -1.39795,-0.223915 -0.65319,-0.481905 -0.39945,0.200185 -1.44055,-0.04259 -0.51689,-0.410714 -1.60118,-0.64254 -0.22361,0.04442 -1.33528,-0.463651 -0.57591,0.552791 -1.90632,-0.09066 -1.80015,-1.255265 0.237,-0.28385 0.0368,-2.335596 -0.69426,-1.168254 -1.25192,-0.18467 -0.20627,-0.763929 -0.69213,-0.139034 -1.08155,0.374206 -0.68878,-0.979325 0.0986,-0.885318 0.83603,-0.09827 0.49195,-1.22971 -0.78705,-0.344392 0.0493,-1.131138 1.32798,-0.196534 -0.83634,-0.836336 -0.44265,-2.164009 0.19653,-0.885318 v -2.410133 l -0.54093,-0.983585 0.68848,-2.852488 0.6395,0.147553 0.73777,0.885317 0.83633,0.786747 0.98359,0.590212 1.37726,0.639497 0.9343,0.196839 0.88532,0.442659 1.03287,0.295106 0.68848,-0.04929 v -0.737765 l 0.39337,-0.344087 0.6395,-0.393373 0.0983,0.344391 0.0986,0.540926 -0.68879,0.147553 -0.0983,0.639498 0.54092,0.442659 0.34439,0.737765 0.19654,0.590212 0.44266,-0.04929 0.0493,-0.393373 -0.2951,-0.393373 -0.14756,-0.983586 0.24582,-0.540926 -0.19653,-0.442659 v -0.688479 l 0.54093,-1.082156 -0.3444,-0.786747 -0.73776,-1.475529 0.0983,-0.246125 0.34986,-0.24582 z m -2.87592,1.819009 0.61486,-0.04929 0.14755,0.418016 0.4673,-0.491945 h 0.71312 l 0.24613,0.467302 -0.4673,0.516588 0.19653,0.24582 -0.22148,0.614855 -0.41802,0.12291 c 0,0 -0.27046,0.02464 -0.27046,-0.07362 0,-0.09827 0.44266,-0.786746 0.44266,-0.786746 l -0.51659,-0.172196 -0.0983,0.442659 -0.22148,0.196839 -0.4673,-0.688479 z"
           fill="#d3d3d3"
           stroke="#ffffff"
           stroke-width="0.228175"
           id="path1111"
           style="fill:#aaaaaa;fill-opacity:1;stroke:#aaaaaa;stroke-opacity:1" />
        <path
           d="m -95.096057,52.675915 1.198677,-0.14877 0.452091,-0.611812 0.165502,-0.89475 -1.080331,-0.179497 -0.156376,-0.203532 0.145424,-0.617897 -0.04868,-0.179497 0.58504,-0.188625 0.925477,-0.861892 0.177064,-1.519339 0.419841,-1.035 0.591125,-0.658969 1.070595,-0.48373 0.503201,-0.488294 0.02099,-0.641323 -0.302408,-0.176455 -0.31123,-0.326442 -0.351389,-1.779154 -0.816866,-1.469445 0.172196,-1.066641 -0.736244,-0.313056 -21.013972,-31.6980286 5.75061,-20.5667544 -20.40794,-4.775849 -0.45848,1.439935 -0.0493,2.26258 -1.5738,3.590253 -0.9346,0.786746 -0.0983,0.3443919 -0.54092,0.2458202 -0.44266,1.278691 -0.24613,0.9835851 0.83634,1.278691 0.49164,1.278691 0.34439,1.0821565 -0.0983,1.9671702 -0.54093,0.93429929 -0.19654,1.77063561 -0.2951,1.1311381 0.54093,1.1804237 0.83603,1.3769583 0.68878,1.4755297 0.39337,1.2297095 -0.0983,0.9835851 -0.0983,0.1475529 v 0.6394977 l 1.72135,1.9181882 -0.14755,0.737765 -0.19654,0.688479 -0.19653,0.590212 0.0493,2.508401 0.6395,1.131138 0.59021,0.786746 0.83603,0.147553 0.29511,0.836032 -0.34439,1.082157 -0.6395,0.491944 h -0.34409 l -0.24612,1.180424 0.14755,0.885318 0.98359,1.327977 0.49194,1.623082 0.44266,1.426244 0.39337,0.9343 1.03287,1.770635 0.44266,0.786747 0.14756,0.885318 0.49194,0.29541 v 0.73746 l -0.24612,0.590212 -0.54093,2.164009 -0.14755,0.590212 0.73776,0.836032 1.27869,0.147249 1.37727,0.540926 1.18042,0.639498 h 0.88532 l 0.88532,0.934299 0.78674,1.47553 0.34409,0.688783 1.18042,0.639498 1.47553,0.246124 0.44266,0.639498 0.19684,0.98328 -0.44266,0.196839 0.0983,0.295106 0.98358,0.246125 0.83604,0.04928 0.96137,-0.513545 1.18043,1.278691 0.24582,0.688783 0.78674,1.278691 0.0983,0.983281 v 2.852792 l 0.14755,0.540927 3.04933,0.442354 6.00038,0.836337 4.213626,0.419841 z m -26.812353,-13.301064 0.39337,0.467302 -0.0493,0.393373 -0.98359,-0.02464 -0.17219,-0.36873 -0.19654,-0.442659 1.00823,-0.02434 z m 0.59021,0 0.36873,-0.196534 1.08216,0.639497 0.9346,0.368731 -0.27046,0.196534 -1.37726,-0.07362 -0.49164,-0.491641 -0.24613,-0.441137 z m 6.29549,6.023812 0.54093,0.713122 0.24582,0.29541 0.4673,0.171892 0.1722,-0.442659 -0.29511,-0.540926 -0.81139,-0.614855 -0.31975,0.04929 v 0.371164 z m -0.44265,2.631615 0.54092,0.958942 0.36873,0.590212 -0.44266,0.07362 -0.39337,-0.36873 c 0,0 -0.22148,-0.442659 -0.22148,-0.565569 0,-0.12291 0,-0.66414 0,-0.66414 z"
           fill="#d3d3d3"
           stroke="#ffffff"
           stroke-width="0.228175"
           id="path1113"
           style="fill:#aaaaaa;fill-opacity:1;stroke:#aaaaaa;stroke-opacity:1" />
      </g>
      <path
         style="display:inline;fill:none;stroke:#cf3d32;stroke-width:1.5;stroke-linecap:butt;stroke-linejoin:miter;stroke-miterlimit:4;stroke-dasharray:none;stroke-opacity:1"
         d="M 0.05436866,93.818212 H 525.05437"
         id="path1399" />
      <path
         style="display:inline;fill:none;stroke:#26358a;stroke-width:1.5;stroke-linecap:butt;stroke-linejoin:miter;stroke-miterlimit:4;stroke-dasharray:none;stroke-opacity:1"
         d="M 0.05436938,1.4207196 H 525.05437"
         id="path1410" />
      <text
         xml:space="preserve"
         style="font-style:normal;font-variant:normal;font-weight:bold;font-stretch:normal;font-size:39.5679px;line-height:1.25;font-family:sans-serif;-inkscape-font-specification:'sans-serif Bold';letter-spacing:0.673229px;word-spacing:0px;display:inline;opacity:0.993;fill:#000000;fill-opacity:1;stroke:none;stroke-width:1.18489"
         x="64.20565"
         y="61.922817"
         id="text902"
         transform="scale(1.0054454,0.9945841)"><tspan
           sodipodi:role="line"
           id="tspan900"
           x="64.20565"
           y="61.922817"
           style="font-style:normal;font-variant:normal;font-weight:normal;font-stretch:normal;font-size:39.5679px;font-family:Cinzel;-inkscape-font-specification:Cinzel;fill:#26358a;fill-opacity:1;stroke-width:1.18489"><tspan
   style="font-style:normal;font-variant:normal;font-weight:normal;font-stretch:normal;font-family:Cinzel;-inkscape-font-specification:Cinzel;letter-spacing:2.00964px;stroke-width:1.18489"
   id="tspan1344">M</tspan><tspan
   id="tspan1350"
   style="font-style:normal;font-variant:normal;font-weight:normal;font-stretch:normal;font-family:Cinzel;-inkscape-font-specification:Cinzel;letter-spacing:-2.00964px;stroke-width:1.18489">E</tspan><tspan
   style="font-style:normal;font-variant:normal;font-weight:normal;font-stretch:normal;font-family:Cinzel;-inkscape-font-specification:Cinzel;letter-spacing:1.50723px;stroke-width:1.18489"
   id="tspan1340">R</tspan><tspan
   style="font-style:normal;font-variant:normal;font-weight:normal;font-stretch:normal;font-family:Cinzel;-inkscape-font-specification:Cinzel;letter-spacing:-1.50723px;stroke-width:1.18489"
   id="tspan1030">I</tspan><tspan
   style="font-style:normal;font-variant:normal;font-weight:normal;font-stretch:normal;font-family:Cinzel;-inkscape-font-specification:Cinzel;letter-spacing:-3.01446px;stroke-width:1.18489"
   id="tspan1106">C</tspan>AN</tspan></text>
      <text
         xml:space="preserve"
         style="font-style:normal;font-variant:normal;font-weight:bold;font-stretch:normal;font-size:23.9974px;line-height:1.25;font-family:sans-serif;-inkscape-font-specification:'sans-serif Bold';letter-spacing:0.1px;word-spacing:0px;display:inline;opacity:0.993;fill:#000000;fill-opacity:1;stroke:none;stroke-width:0.999894"
         x="269.06458"
         y="58.123455"
         id="text906"
         transform="scale(1.0327361,0.96830158)"><tspan
           sodipodi:role="line"
           id="tspan904"
           x="269.06458"
           y="58.123455"
           style="font-style:normal;font-variant:normal;font-weight:normal;font-stretch:normal;font-size:23.9974px;font-family:Cinzel;-inkscape-font-specification:Cinzel;letter-spacing:0.1px;fill:#333333;fill-opacity:1;stroke-width:0.999894">UAL<tspan
   style="letter-spacing:0.1px;stroke-width:0.999894"
   id="tspan1366">I</tspan>TY <tspan
   style="font-size:29.3302px;letter-spacing:0.1px;stroke-width:0.999894"
   id="tspan1356">C</tspan><tspan
   id="tspan1384"
   style="letter-spacing:0.1px;stroke-width:0.999894">L</tspan><tspan
   style="letter-spacing:0.1px;stroke-width:0.999894"
   id="tspan1372">E</tspan>A<tspan
   style="letter-spacing:0.1px;stroke-width:0.999894"
   id="tspan1386">N</tspan><tspan
   style="letter-spacing:0.1px;stroke-width:0.999894"
   id="tspan1388">I</tspan><tspan
   style="letter-spacing:0.1px;stroke-width:0.999894"
   id="tspan1394">N</tspan>G</tspan></text>
      <text
         xml:space="preserve"
         style="font-style:normal;font-variant:normal;font-weight:bold;font-stretch:normal;font-size:13.0579px;line-height:1.25;font-family:sans-serif;-inkscape-font-specification:'sans-serif Bold';letter-spacing:0px;word-spacing:0px;display:inline;opacity:0.993;fill:#000000;fill-opacity:1;stroke:none;stroke-width:0.445159"
         x="315.18918"
         y="76.170662"
         id="text910"
         transform="scale(0.98191856,1.0184144)"><tspan
           sodipodi:role="line"
           id="tspan908"
           x="315.18918"
           y="76.170662"
           style="font-style:normal;font-variant:normal;font-weight:normal;font-stretch:normal;font-family:Cinzel;-inkscape-font-specification:Cinzel;fill:#333333;fill-opacity:1;stroke-width:0.445159">COMPLETE JANITORIAL SERVICE</tspan></text>
      <text
         xml:space="preserve"
         style="font-style:normal;font-variant:normal;font-weight:bold;font-stretch:normal;font-size:29.3333px;line-height:1.25;font-family:sans-serif;-inkscape-font-specification:'sans-serif Bold';letter-spacing:0px;word-spacing:0px;display:inline;opacity:0.993;fill:#000000;fill-opacity:1;stroke:none;filter:url(#filter1404)"
         x="18.565172"
         y="61.819859"
         id="text1402"
         transform="matrix(1.6007819,0,0,1.732022,-11.990444,-45.266746)"><tspan
           sodipodi:role="line"
           id="tspan1400"
           x="18.565172"
           y="61.819859"
           style="font-style:normal;font-variant:normal;font-weight:normal;font-stretch:normal;font-size:37.3333px;font-family:Cinzel;-inkscape-font-specification:Cinzel;fill:#26358a;fill-opacity:1">A</tspan></text>
      <g
         id="g1673"
         style="display:inline;opacity:0.993">
        <path
           style="display:inline;opacity:0.996;fill:none;stroke:#000000;stroke-width:1.8;stroke-linecap:butt;stroke-linejoin:miter;stroke-miterlimit:4;stroke-dasharray:none;stroke-opacity:1;filter:url(#filter1649)"
           d="m 281.67117,64.508092 c 0.19172,0.04537 0.38097,0.134546 0.54833,0.222041 0.031,0.01622 -0.006,0.0092 0.0155,0.03077 0.0179,0.01794 0.0478,0.01882 0.0681,0.03405 0.0318,0.02383 0.0533,0.06128 0.0851,0.08512 0.0244,0.01833 0.0578,0.02038 0.0851,0.03405 0.1116,0.0558 0.23228,0.108408 0.34055,0.170283 0.0139,0.008 0.0193,0.02772 0.034,0.03405 0.1454,0.06232 0.34752,-0.01534 0.47785,0.05124 0.0462,0.02362 0.23154,-0.0046 0.2627,0.02652 0.0512,0.05119 0.0895,0.165371 0.13181,0.197276 0.0252,0.01906 0.24245,-0.02967 0.18311,0"
           id="path1591" />
        <path
           style="display:inline;opacity:0.996;fill:none;stroke:#000000;stroke-width:1px;stroke-linecap:butt;stroke-linejoin:miter;stroke-opacity:1;filter:url(#filter1649)"
           d="m 287.61991,66.515738 c 0.076,0.0098 0.15142,0.02667 0.228,0.0294 0.0401,0.0014 0.0791,-0.01426 0.11916,-0.01702 0.14792,-0.01021 0.288,0.0014 0.43512,-0.01702 0.13286,-0.01661 0.27644,0.02202 0.40856,0 0.12423,-0.0207 0.25406,-0.05107 0.38199,-0.05107"
           id="path1597" />
        <text
           xml:space="preserve"
           style="font-style:normal;font-variant:normal;font-weight:bold;font-stretch:normal;font-size:28.2892px;line-height:1.25;font-family:sans-serif;-inkscape-font-specification:'sans-serif Bold';letter-spacing:0px;word-spacing:0px;fill:#000000;fill-opacity:1;stroke:none;stroke-width:0.964414"
           x="254.23227"
           y="57.53791"
           id="text1575"
           transform="scale(1.0016711,0.99833168)"><tspan
             sodipodi:role="line"
             id="tspan1573"
             x="254.23227"
             y="57.53791"
             style="font-style:normal;font-variant:normal;font-weight:normal;font-stretch:normal;font-family:Cinzel;-inkscape-font-specification:Cinzel;fill:#333333;fill-opacity:1;stroke-width:0.964414">O</tspan></text>
        <path
           style="fill:none;stroke:#333333;stroke-width:0.993267px;stroke-linecap:round;stroke-linejoin:miter;stroke-opacity:1"
           d="m 271.97089,56.414014 c 2.06371,1.863104 4.12638,3.725268 5.77041,5.010955 1.64403,1.285687 2.86924,1.995136 4.07012,2.580266 1.20087,0.585129 2.37734,1.046134 3.67923,1.365151 1.30189,0.319018 2.75159,0.499148 4.18902,0.677754"
           id="path1579"
           inkscape:path-effect="#path-effect1581"
           inkscape:original-d="m 271.97089,56.414014 c 2.06367,1.863149 4.12634,3.725313 6.18801,5.586492 1.22625,0.710456 2.45147,1.419898 3.67569,2.128371 1.1775,0.462004 2.35397,0.923006 3.52946,1.383033 1.42684,0.190762 2.87808,0.35847 4.31562,0.53623" />
        <path
           style="fill:none;stroke:#333333;stroke-width:0.851229px;stroke-linecap:round;stroke-linejoin:miter;stroke-opacity:1"
           d="m 273.15202,57.509146 c 1.63183,1.730508 3.26283,3.460137 4.56282,4.654328 1.29998,1.19419 2.26878,1.853149 3.21835,2.396633 0.94956,0.543485 1.87983,0.971683 2.90948,1.268018 1.02965,0.296336 2.17551,0.46358 3.3121,0.629469"
           id="path1583"
           inkscape:path-effect="#path-effect1585"
           inkscape:original-d="m 273.15202,57.509146 c 1.63179,1.730546 3.26279,3.460177 4.89301,5.188891 0.96961,0.659891 1.93842,1.318842 2.90644,1.976891 0.93107,0.429124 1.86134,0.857315 2.79082,1.284601 1.12824,0.177184 2.27578,0.332956 3.41248,0.498065" />
        <path
           style="fill:none;stroke:#333333;stroke-width:0.174373px;stroke-linecap:round;stroke-linejoin:miter;stroke-opacity:1"
           d="m 286.48847,66.6732 c 0.46492,0.08083 0.92959,0.161607 1.28421,0.196098 0.35462,0.03449 0.59917,0.02274 0.83011,-0.0054 0.23095,-0.02811 0.44831,-0.07256 0.67358,-0.150488 0.22527,-0.07792 0.46251,-0.191205 0.69757,-0.303445"
           id="path1587"
           inkscape:path-effect="#path-effect1589"
           inkscape:original-d="m 286.48847,66.6732 c 0.46492,0.08083 0.92959,0.161622 1.39405,0.242351 0.24478,-0.0117 0.48933,-0.02345 0.73365,-0.03525 0.21759,-0.0444 0.43495,-0.08885 0.65207,-0.133342 0.23439,-0.109373 0.4707,-0.224598 0.7057,-0.336967" />
        <path
           style="fill:none;stroke:#333333;stroke-width:0.657969px;stroke-linecap:round;stroke-linejoin:miter;stroke-opacity:1"
           d="m 274.91099,59.170195 c 1.31578,1.282273 2.63089,2.563895 3.6791,3.448769 1.04821,0.884873 1.82938,1.373149 2.59504,1.775863 0.76567,0.402714 1.51576,0.719996 2.34589,0.939566 0.83014,0.21957 1.75428,0.343522 2.67074,0.466445"
           id="path1593"
           inkscape:path-effect="#path-effect1595"
           inkscape:original-d="m 274.91099,59.170195 c 1.31575,1.282304 2.63086,2.56393 3.94535,3.844877 0.78183,0.488969 1.56301,0.977238 2.34355,1.464843 0.75076,0.317971 1.50085,0.635254 2.25032,0.951865 0.90973,0.131291 1.83501,0.246715 2.75155,0.369058" />
        <path
           style="fill:none;stroke:#333333;stroke-width:0.714856px;stroke-linecap:round;stroke-linejoin:miter;stroke-opacity:1"
           d="m 285.44904,65.989337 c 1.01413,0.218533 2.02733,0.436867 2.75316,0.466209 0.72583,0.02934 1.1647,-0.129904 1.60304,-0.288958"
           id="path1613"
           inkscape:path-effect="#path-effect1615"
           inkscape:original-d="m 285.44904,65.989337 c 1.01403,0.218981 2.02723,0.437314 3.03958,0.654996 0.43972,-0.158601 0.87859,-0.317846 1.31662,-0.477745" />
        <path
           style="fill:none;stroke:#333333;stroke-width:0.459629px;stroke-linecap:round;stroke-linejoin:miter;stroke-opacity:1"
           d="m 284.92673,65.391081 c 0.72116,0.469295 1.44204,0.938409 2.07369,1.137691 0.63166,0.199281 1.17438,0.128917 1.7171,0.05855"
           id="path1657"
           inkscape:path-effect="#path-effect1659"
           inkscape:original-d="m 284.92673,65.391081 c 0.72094,0.46963 1.44182,0.938742 2.16263,1.407337 0.54279,-0.06985 1.08551,-0.140211 1.62816,-0.211093" />
      </g>
      <path
         style="display:inline;opacity:0.993;fill:none;stroke:#cf3d32;stroke-width:2.25;stroke-linecap:butt;stroke-linejoin:miter;stroke-miterlimit:4;stroke-dasharray:none;stroke-opacity:1"
         d="M 254.94276,33.204314 H 513.38958"
         id="path1675" />
      <path
         style="display:inline;opacity:0.993;fill:none;stroke:#cf3d32;stroke-width:2.25;stroke-linecap:butt;stroke-linejoin:miter;stroke-miterlimit:4;stroke-dasharray:none;stroke-opacity:1"
         d="m 254.94276,62.325845 h 14.84722"
         id="path1678" />
      <path
         style="display:inline;opacity:0.993;fill:none;stroke:#cf3d32;stroke-width:2.25;stroke-linecap:butt;stroke-linejoin:miter;stroke-miterlimit:4;stroke-dasharray:none;stroke-opacity:1"
         d="M 285.54928,62.325845 H 513.83583"
         id="path1680" />
      <path
         d="m 160.95079,27.389769 c -0.40191,-0.100476 -13.01173,-0.07536 -28.00789,0.05024 -14.99617,0.125595 -37.07593,0.301431 -49.108016,0.351668 -26.299794,0.125596 -34.43841,0.452145 -42.828218,1.682987 -6.530988,0.52985 -16.226993,2.838463 -18.588197,3.61716 -6.103962,1.984417 -11.077561,5.048958 -11.45435,7.033371 -0.200951,1.180603 0.05024,1.783464 1.356436,3.190138 2.411443,2.587278 7.510639,4.747526 13.890912,5.852773 2.456072,0.312404 11.102678,0.436785 14.16722,0.37389 1.883939,-0.226075 7.862305,-0.147817 10.248628,0.279204 2.51192,0.42703 4.546569,1.180604 6.179318,2.235611 0.854056,0.552621 1.607628,1.004767 1.65787,1.004767 0.35167,0 0.02514,-1.055007 -0.627979,-2.059774 -2.135133,-3.215253 -6.22956,-5.275028 -12.057211,-6.078842 -12.861023,-1.733223 -13.715076,-1.909055 -16.578662,-3.064541 -2.587277,-1.029885 -3.968833,-2.310962 -3.667402,-3.31573 0.401907,-1.20572 3.893474,-2.637517 10.650532,-4.345619 6.22956,-1.557388 12.484236,-2.637517 17.256883,-2.964067 5.702053,-0.401907 10.248628,-0.753574 13.187569,-1.029884 1.456919,-0.150715 8.465172,-0.376788 15.573903,-0.502382 7.10873,-0.150716 24.240014,-0.527503 38.055564,-0.879173 13.81556,-0.326549 28.23397,-0.703336 32.02698,-0.778695 3.79299,-0.100477 7.48551,-0.251192 8.16373,-0.32655 1.13036,-0.150715 1.1806,-0.175833 0.50238,-0.326548 z"
         id="path2"
         style="display:inline;fill:#ffffff;fill-opacity:1;stroke:none;stroke-width:0.0251191"
         sodipodi:nodetypes="cscccccccccsccccccccccccc" />
      <path
         d="m 160.97978,26.343928 c -0.40191,-0.100476 -13.01173,-0.07536 -28.00789,0.05024 -14.99617,0.125595 -37.075916,0.301431 -49.108002,0.351668 -26.299794,0.125596 -34.43841,0.452145 -42.828218,1.682987 -6.530988,0.52985 -16.226993,2.838463 -18.588197,3.61716 -6.103962,1.984417 -11.077561,5.048958 -11.45435,7.033371 -0.200951,1.180603 0.05024,1.783464 1.356436,3.190138 2.411443,2.587278 7.510639,4.747526 13.890912,5.852773 2.336084,0.401906 11.102678,0.478994 14.16722,0.395312 1.865176,-0.07261 7.862305,-0.169239 10.248628,0.257782 2.51192,0.42703 4.546569,1.180604 6.179318,2.235611 0.854056,0.552621 1.607628,1.004767 1.65787,1.004767 0.35167,0 0.02514,-1.055007 -0.627979,-2.059774 C 55.730395,46.74071 51.635968,44.680935 45.808317,43.877121 32.947294,42.143898 32.093241,41.968066 29.229655,40.81258 c -2.587277,-1.029885 -3.968833,-2.310962 -3.667402,-3.31573 0.401907,-1.20572 3.893474,-2.637517 10.650532,-4.345619 6.22956,-1.557388 12.484236,-2.637517 17.256883,-2.964067 5.702053,-0.401907 10.248628,-0.753574 13.187569,-1.029884 1.456919,-0.150715 8.465172,-0.376788 15.573903,-0.502382 7.10873,-0.150716 24.24,-0.527503 38.05555,-0.879173 13.81556,-0.326549 28.23397,-0.703336 32.02698,-0.778695 3.79299,-0.100477 7.48551,-0.251192 8.16373,-0.32655 1.13036,-0.150715 1.1806,-0.175833 0.50238,-0.326548 z"
         id="path1050"
         style="display:inline;fill:#cf3d32;fill-opacity:1;stroke:none;stroke-width:0.0251191"
         sodipodi:nodetypes="cscccccccccsccccccccccccc" />
      <path
         style="fill:#26358a;fill-opacity:1;stroke:#26358a;stroke-width:0.151073;stroke-linecap:butt;stroke-linejoin:miter;stroke-miterlimit:4;stroke-dasharray:none;stroke-opacity:1"
         d="m 40.428488,28.532922 1.558568,4.52561 3.484389,-0.847192 -1.750376,-4.495096 z"
         id="path1076" />
    </g>
  </g>
</svg>
